<svg width="32" height="32" viewBox="0 0 32 32" xmlns="http://www.w3.org/2000/svg">
<g clip-path="url(#clip0_4355_53881)">
<path fill-rule="evenodd" clip-rule="evenodd" d="M17.0616 64.64C17.1022 64.5293 17.1085 64.3923 17.0812 64.2196C16.8941 63.0343 15.7088 60.227 16.1455 58.7924C16.5821 57.3578 17.8915 56.7427 17.9802 54.4944C18.0085 53.7798 18.0978 52.8223 18.2037 51.8855C18.2837 52.0889 18.3616 52.2775 18.4365 52.4468C19.3824 54.6057 19.6191 55.1334 19.4639 56.9086C19.364 58.0516 19.172 61.4018 19.1553 63.8033L18.7532 63.3236C18.7532 63.3236 18.1975 62.8849 18.3472 64.4402C18.387 64.854 18.4352 65.279 18.4846 65.6799C18.158 65.3143 17.727 64.9754 17.1608 64.6863C17.1291 64.6702 17.0965 64.6548 17.063 64.64H17.0616ZM7.91888 53.8289C7.8511 54.3719 7.67482 54.8957 7.40052 55.3692C6.27872 57.2917 5.53367 60.7691 4.85065 63.8653C4.69952 64.5509 4.5793 65.2043 4.49463 65.8079L4.16783 65.4212C4.16783 65.4212 3.59635 64.9719 3.75911 66.5652C3.92188 68.1586 4.20826 69.9156 4.20826 69.9156L4.27747 70.0337H4.65846V70.039C4.65846 70.039 10.3521 70.0217 14.5096 70.0208C16.6829 70.0208 18.3753 70.0257 18.7165 70.0376C18.7303 70.0376 18.7434 70.0375 18.7529 70.039L18.7866 70.0405H18.7942H18.8188H18.8804H18.8924H18.9098H18.9221L18.9377 70.0395H18.9506L18.965 70.0382L18.9777 70.0367L18.9911 70.035L19.004 70.0331L19.0162 70.0312L19.0289 70.0289L19.0404 70.0265L19.0529 70.0238C19.0565 70.0238 19.0603 70.0223 19.0637 70.0213C19.0678 70.0204 19.0719 70.0194 19.0759 70.0181L19.0863 70.0153L19.0977 70.0117L19.1079 70.0085L19.1191 70.0045L19.1284 70.0011L19.1394 69.9967L19.1483 69.9929L19.1587 69.988L19.1674 69.9838L19.1773 69.9787L19.1856 69.9741C19.1888 69.9724 19.192 69.9705 19.1951 69.9683L19.2027 69.9637L19.2122 69.9573L19.2192 69.9525L19.2285 69.9455L19.2351 69.9404L19.244 69.933L19.2501 69.9275C19.2531 69.9249 19.2558 69.9222 19.2586 69.9194C19.2606 69.9177 19.2625 69.9159 19.2643 69.9139L19.2728 69.9053L19.2781 69.8993L19.2859 69.8904L19.291 69.8839C19.2935 69.8809 19.2961 69.8777 19.2986 69.8744C19.3 69.8722 19.3016 69.8702 19.3033 69.8682L19.3105 69.8576C19.3119 69.8555 19.3134 69.8534 19.3147 69.8513C19.316 69.8492 19.3196 69.8439 19.3217 69.8401C19.3231 69.838 19.3245 69.8358 19.3257 69.8335C19.328 69.8297 19.3301 69.8257 19.3325 69.8217C19.3348 69.8176 19.3348 69.8172 19.3361 69.8149L19.3424 69.8026C19.3424 69.8003 19.3445 69.7979 19.3458 69.7956L19.3519 69.7823L19.3549 69.7755C19.3568 69.7709 19.3589 69.7662 19.3608 69.7613L19.3634 69.7546L19.3691 69.7395C19.3691 69.7374 19.3706 69.7351 19.3714 69.7328C19.3723 69.7304 19.375 69.7222 19.3767 69.7169L19.3786 69.7107C19.3805 69.7048 19.3824 69.6989 19.3841 69.693L19.3854 69.6885C19.3871 69.682 19.389 69.6754 19.3907 69.6686L19.3919 69.664C19.4048 69.6116 19.4146 69.5585 19.4212 69.505V69.5031C19.4212 69.4957 19.4231 69.4879 19.4239 69.4802C19.4239 69.4773 19.4239 69.4745 19.425 69.4718C19.425 69.4646 19.4264 69.4572 19.4273 69.4506C19.4273 69.4472 19.4273 69.444 19.4273 69.4407C19.4273 69.4373 19.4286 69.4273 19.429 69.4208L19.4303 69.407C19.4303 69.4007 19.4303 69.3943 19.4317 69.388L19.433 69.3729L19.4343 69.3532C19.4343 69.3482 19.4343 69.3429 19.4343 69.3376C19.4343 69.3323 19.4343 69.3253 19.4343 69.3192C19.4343 69.313 19.4343 69.3071 19.4343 69.301C19.4343 69.2948 19.4343 69.2889 19.4343 69.2828V69.2639V69.2453V69.2254V69.2068V69.1856V69.1644V69.1458C19.4343 69.138 19.4343 69.1297 19.4343 69.1217V69.1045V69.0823V69.0611V69.0188V68.9947V68.5415C19.4343 68.5108 19.4343 68.4797 19.4343 68.4478C19.4347 68.2405 19.4233 68.0333 19.4 67.8274L19.9503 67.8261V67.8314C19.9503 67.8314 24.3317 67.8181 28.1555 67.8145C30.9495 67.8132 33.283 67.8166 33.6748 67.8299L33.7082 67.8314L33.7408 67.8329H33.7641H33.8026H33.8238H33.8327H33.8539H33.8621L33.8833 67.8316H33.8892L33.9104 67.8299H33.9169L33.9362 67.8276H33.9423L33.9612 67.8246H33.9669L33.9849 67.8214L33.9906 67.8202C33.9965 67.8191 34.0022 67.8178 34.008 67.8164L34.0135 67.8151L34.0298 67.8109L34.0355 67.8094L34.0509 67.8045L34.0564 67.8028L34.0714 67.7975L34.0767 67.7956L34.0913 67.7897L34.0958 67.7878L34.1102 67.7812L34.1144 67.7791C34.1191 67.7768 34.1237 67.7745 34.1282 67.7719L34.1322 67.7698L34.1453 67.762L34.1491 67.7596L34.1618 67.7512L34.1654 67.7486L34.1775 67.7397L34.1809 67.737L34.1927 67.7273L34.1955 67.7247C34.1995 67.7213 34.2033 67.7177 34.2069 67.7141L34.2097 67.7116C34.2135 67.708 34.2171 67.7042 34.2205 67.7004L34.223 67.6976C34.2266 67.6938 34.23 67.6898 34.2334 67.6858L34.2359 67.6828C34.2393 67.6788 34.2425 67.6746 34.2459 67.6701L34.2478 67.6676C34.2511 67.6631 34.2543 67.6585 34.2575 67.654L34.2592 67.6513C34.2624 67.6466 34.2655 67.6417 34.2685 67.6369L34.27 67.6343L34.2789 67.6189V67.6168L34.2878 67.6001V67.5986C34.2907 67.5926 34.2935 67.5867 34.2962 67.5806V67.5791L34.3045 67.56C34.3432 67.4642 34.365 67.341 34.3775 67.1875V67.1831C34.3775 67.1742 34.379 67.1655 34.3796 67.1566V67.1484C34.3796 67.1399 34.3809 67.131 34.3813 67.1223V67.1134C34.3813 67.1043 34.3824 67.095 34.3828 67.0857V67.0775L34.3841 67.0514V67.0396C34.3841 67.0313 34.3841 67.0229 34.3841 67.0142V67.0013C34.3841 66.9928 34.3841 66.9841 34.3841 66.9754V66.9623V66.9371V66.921V66.8975V66.8787V66.8575V66.8364V66.8152V66.7924V66.7712V66.372C34.3841 66.3421 34.3841 66.3116 34.3841 66.2806C34.3915 65.0842 34.042 63.5687 32.1739 62.6118C31.9081 62.4755 31.5762 62.3879 31.2028 62.3367C31.1605 62.1769 31.036 61.9633 30.8036 61.6716C29.9648 60.6195 29.5125 60.9391 29.3677 59.9432C29.2229 58.9473 28.5289 58.8722 28.3306 57.6886C28.1323 56.505 28.4603 55.6262 28.8947 54.4375C29.329 53.2488 29.5015 52.5748 28.6146 50.4745C27.7515 48.4301 26.8521 45.0393 26.5065 43.6802C27.3227 43.4224 27.5436 43.2425 27.459 42.4485C27.413 42.0161 27.1713 41.452 26.8348 40.6056C26.6762 40.1916 26.4472 39.5359 26.6206 39.3659C26.7649 39.2243 26.8811 39.7924 27.3332 40.2858C27.7777 40.7726 28.5795 41.0901 29.7282 41.2501C30.4605 41.3525 31.8935 41.1654 33.5226 40.8107C33.6838 40.9326 33.8741 41.0103 34.0746 41.0359C34.7731 41.18 36.0596 40.6202 36.6332 40.1173C37.2068 39.6144 37.3196 39.8047 37.658 39.8663C37.9965 39.9278 38.6391 39.8811 39.0762 39.4029C39.5132 38.9248 40.0617 38.2661 41.7679 37.8017C42.9079 37.4914 43.5989 37.4658 43.9975 37.2241C44.2783 37.2002 44.5573 37.1588 44.8329 37.1003C45.9153 36.8636 45.9759 36.2896 45.997 35.6453C46.0182 35.001 45.1864 35.2298 44.5935 35.1049C44.0007 34.98 45.1438 34.7517 45.6436 34.4816C46.1433 34.2115 45.9761 33.6087 45.6859 33.0059C45.3957 32.4031 44.7091 32.902 44.0925 33.0027C43.476 33.1035 44.6466 32.5072 44.8968 32.2994C45.147 32.0915 45.3333 31.6965 44.9798 31.1564C44.2077 29.9753 42.2682 31.3357 41.3418 31.8733C41.0581 31.96 40.7692 32.0285 40.4767 32.0782C40.379 32.0804 40.2817 32.065 40.1895 32.0325C40.0054 31.9618 40.0902 30.758 40.0902 29.9226C40.0902 29.0872 39.0848 28.6059 38.4903 28.7756C37.8957 28.9454 38.3061 29.5545 38.0797 30.8855C37.868 32.1241 37.3636 32.6025 37.2946 32.7314C37.283 32.7462 37.2711 32.7612 37.2588 32.7762C37.0127 33.0829 36.725 33.2512 36.4613 33.3266C36.4254 33.3206 36.3889 33.3186 36.3525 33.3206C36.2215 33.3293 36.0683 33.3405 35.8981 33.3526C35.8659 33.3448 35.8344 33.3345 35.8039 33.3217C35.1922 33.0622 34.1343 32.7392 33.4689 33.2137C33.3736 33.2832 33.2904 33.3679 33.2227 33.4643C32.0708 33.4544 31.0445 33.328 30.8599 32.9085C30.4893 32.0663 28.6191 26.9608 27.3055 26.3557C26.6657 26.0604 25.5212 25.6682 24.7842 25.751C24.0078 25.8382 7.26315 27.5613 7.26315 27.5613C7.22527 27.5613 7.18611 27.5632 7.14589 27.5662C6.50117 27.2832 5.08771 26.9547 3.77562 28.6357C2.00466 30.9047 -0.197246 35.6563 -1.02738 37.2059C-1.77327 38.598 -1.44054 41.8978 -1.44075 41.8976C-2.51281 41.2063 -3.21426 40.4291 -3.76902 38.9445C-4.13561 39.3957 -4.34622 39.8334 -4.44041 40.4538C-5.56962 39.0863 -6.19719 37.5685 -6.91345 35.9821C-7.2121 38.0352 -7.49911 39.7708 -7.11093 41.9052C-7.22988 41.6749 -7.49192 41.4336 -7.6786 41.0255C-8.66981 44.297 -7.2847 47.8546 -4.67302 49.8438C-5.308 49.8755 -5.91759 49.961 -6.5532 49.993C-5.91547 51.0126 -4.83155 52.2004 -3.84903 52.9093C-1.94112 54.2851 0.285129 55.0593 2.62779 55.2335C4.54797 55.3764 6.21586 54.753 7.89263 53.8753C7.91528 53.8562 7.91718 53.8433 7.91888 53.8289ZM7.92375 53.7866C7.92226 53.7999 7.92078 53.8131 7.91909 53.8264C7.92078 53.8128 7.92226 53.7997 7.92375 53.7864V53.7866ZM7.9284 53.7453C7.92713 53.7576 7.92565 53.7699 7.92438 53.7822C7.92565 53.7697 7.92713 53.7574 7.9284 53.7451V53.7453ZM7.93264 53.6994C7.93158 53.7119 7.93031 53.7246 7.92904 53.7371C7.93031 53.7244 7.93158 53.7117 7.93348 53.6992L7.93264 53.6994ZM7.93645 53.6571C7.93645 53.6698 7.93433 53.6822 7.93306 53.6949C7.93348 53.6814 7.93539 53.6689 7.93645 53.6562V53.6571ZM7.93962 53.6135C7.93962 53.6255 7.93793 53.6376 7.93687 53.6497C7.93793 53.6367 7.93877 53.6247 7.93962 53.6126V53.6135ZM7.94237 53.5692C7.94237 53.5809 7.94089 53.5925 7.94026 53.6041C7.94089 53.5917 7.94153 53.58 7.94237 53.5682V53.5692ZM7.94449 53.5269L7.94258 53.5629L7.94449 53.5269ZM7.94618 53.4846C7.94618 53.4913 7.94618 53.4981 7.94618 53.5057C7.94576 53.4954 7.94597 53.4886 7.94618 53.4818V53.4846ZM7.94745 53.4329V53.4613V53.4329ZM7.94745 53.3906C7.94745 53.3995 7.94745 53.4084 7.94745 53.4173C7.94788 53.4052 7.94788 53.3963 7.94809 53.3874L7.94745 53.3906ZM7.94745 53.3023C7.94745 53.3104 7.94745 53.3182 7.94745 53.3262C7.94788 53.3142 7.94766 53.307 7.94766 53.2991L7.94745 53.3023ZM7.94745 53.2585V53.2822V53.2585ZM7.94597 53.2162V53.2361V53.2162Z"/>
<path fill-rule="evenodd" clip-rule="evenodd" d="M7.3228 27.7893L7.72347 27.7179C11.1413 29.1784 18.5994 30.3528 24.3743 27.8183L25.549 24.2546C18.0603 26.6391 13.1184 25.62 6.74243 24.3854L7.3228 27.7893Z"/>
<path fill-rule="evenodd" clip-rule="evenodd" d="M3.92588 31.8369C3.92588 31.8369 2.48657 30.5229 2.48657 27.693C2.48657 24.8631 3.72459 23.2711 3.92588 23.1954C4.12718 23.1196 7.3125 23.6754 9.8893 25.6718C12.4661 27.6682 12.904 29.0514 12.904 29.0514C12.904 29.0514 9.90179 28.5261 8.87014 28.1466C7.83849 27.7671 6.75604 27.4656 6.07364 28.2488C5.39123 29.0319 3.92588 31.8369 3.92588 31.8369Z"/>
<path fill-rule="evenodd" clip-rule="evenodd" d="M3.67317 30.9023C3.67317 30.9023 2.78883 28.8555 2.99097 26.8595C3.19311 24.8635 3.62279 23.903 4.2544 23.9788C4.88601 24.0545 7.08456 24.7875 8.90382 26.1771C10.7231 27.5667 11.5073 28.3251 10.5209 28.123C9.53458 27.9208 8.145 27.3142 6.20023 27.1112C4.25546 26.9082 3.62279 27.3893 4.55771 27.5409C5.49264 27.6924 6.42756 27.3639 5.79574 27.7936C5.16392 28.2233 4.50713 29.057 4.2544 29.6634C4.00167 30.2699 3.67317 30.9015 3.67317 30.9015"/>
<path fill-rule="evenodd" clip-rule="evenodd" d="M3.86237 0.00252001C3.86237 0.00252001 4.19256 2.59347 5.91991 4.11764C7.64726 5.64181 9.47579 5.7686 11.3807 7.41956C13.2857 9.07052 13.2351 10.3155 13.2351 10.3155L11.436 12.2774C9.54987 10.855 1.17832 9.46823 3.23035 0.674122C3.58764 0.199577 3.83972 -0.024361 3.86237 0.00209668"/>
<path fill-rule="evenodd" clip-rule="evenodd" d="M3.86242 0.00245626C3.86242 0.00245626 4.19261 2.5934 5.91998 4.11758C7.64735 5.64175 9.47589 5.76854 11.3808 7.41949C13.2858 9.07045 13.2352 10.3154 13.2352 10.3154C11.4611 12.2486 9.68698 14.1824 7.91298 16.1169C6.51072 17.0433 2.25569 15.9321 1.26385 13.7649C1.64484 13.9706 2.23368 13.9186 2.53657 13.8318C1.96297 13.3949 0.529595 12.6473 0.324707 10.5375C0.622726 10.8438 0.899791 10.9909 1.15548 10.9727C0.866137 10.888 0.134 7.63391 1.31359 4.56545C2.30311 1.44133 3.8059 -0.0616771 3.86242 0.00245626Z"/>
<path fill-rule="evenodd" clip-rule="evenodd" d="M3.7593 3.52759C3.7593 3.52759 3.69156 4.27264 6.49925 6.30141C9.30694 8.33018 10.4573 9.98855 10.6601 10.5298C10.8629 11.071 8.42749 14.9615 8.42749 14.9615C8.42749 14.9615 6.05942 15.0631 4.5035 13.5409C2.94757 12.0186 2.60913 10.8009 2.60913 10.8009C2.99499 10.9235 3.34211 10.8917 3.6577 10.7332C3.09277 10.1937 2.68744 9.45157 2.47388 8.46671C2.7539 8.80748 3.06018 8.95099 3.3872 8.9404C3.04452 7.3267 3.03478 5.03187 3.7593 3.52759Z"/>
<path fill-rule="evenodd" clip-rule="evenodd" d="M25.4104 0.267578C26.5802 3.03569 27.1013 5.53795 26.8267 8.55772C26.9808 8.49104 27.1493 8.28362 27.2884 8.05672C27.5178 9.51041 27.5777 10.3014 27.1825 11.1389C27.5424 10.987 27.7053 10.8862 27.9523 10.6051C27.9748 11.7104 27.4041 13.2445 25.8614 13.8467C24.3868 14.9452 21.217 10.8976 21.217 10.8976C22.5928 7.89204 25.1854 4.15897 25.4104 0.268425"/>
<path fill-rule="evenodd" clip-rule="evenodd" d="M25.1854 4.15796C25.6825 6.70488 25.7312 8.06565 25.4536 10.2923C25.7777 10.2252 26.2017 10.0284 26.6355 9.63195C26.7654 10.1611 26.0931 12.8886 24.8501 12.7728C23.7975 13.4336 21.8654 9.75598 21.8654 9.75598C21.7706 8.11349 22.8309 6.25595 25.1844 4.15796"/>
<path fill-rule="evenodd" clip-rule="evenodd" d="M19.8611 9.07561C21.9989 7.13108 25.1638 3.02823 25.3581 0.111328C26.9711 4.71285 23.7897 9.36093 21.6939 11.852C20.3221 10.3862 21.2331 10.5414 19.8611 9.07561Z"/>
<path fill-rule="evenodd" clip-rule="evenodd" d="M13.6676 7.29487C13.6676 7.29487 12.304 7.7131 10.9854 8.70282C9.71841 9.64174 8.43575 10.8641 6.79222 11.0311C6.88979 11.4864 7.29364 11.8115 7.60817 11.8695C7.02102 12.3429 6.83836 12.9955 5.67635 12.9913C5.95447 13.6667 6.41292 13.7915 6.72957 13.7839C3.4135 19.8556 5.56163 20.5869 6.7247 24.8848C9.75863 25.902 14.2304 26.5383 18.4136 26.3148C23.7523 26.0292 26.8243 24.0166 27.5393 22.8518C28.5703 21.3895 29.0074 19.181 28.2484 18.6624C28.5915 18.654 28.9974 18.4525 29.0412 18.026C26.9282 17.3584 27.1575 15.3775 26.4446 13.72C25.7967 12.2143 25.0476 10.7411 23.6014 9.53189C21.3938 7.68707 20.1657 7.79417 19.9145 7.76179C20.1987 7.56516 20.446 7.48769 20.8623 7.46546C20.3511 6.54686 19.0075 6.73947 18.8009 6.87515C19.0619 6.38219 19.75 5.61006 20.4843 5.32114C19.2748 4.96852 17.0418 5.88649 16.5978 6.93822C15.6919 6.10259 14.2951 6.60549 13.6676 7.29465"/>
<path fill-rule="evenodd" clip-rule="evenodd" d="M5.47819 17.3934C6.19912 16.3655 6.5979 14.7038 7.536 13.2342C7.07457 13.4882 6.48212 13.4671 6.04059 13.1919C7.07648 13.1813 7.43102 12.1065 8.40764 11.6506C7.99574 11.6732 7.60839 11.61 7.30698 11.247C7.30698 11.247 8.53887 11.1113 9.36712 10.4312C11.0562 9.044 13.2789 7.40872 15.5778 7.44279C15.3056 7.23304 14.9216 7.10985 14.366 7.12043C15.1492 6.63552 15.9702 6.74834 16.6478 7.35326C17.0882 6.48313 18.2329 5.6403 19.6322 5.50928C18.8176 5.88561 18.056 6.77755 17.9859 7.72324C18.5839 6.8258 20.3293 6.98243 20.4554 7.39686C19.599 7.28807 18.8516 7.97872 18.8516 7.97872C18.8516 7.97872 22.0266 7.79457 24.5689 11.1833C26 13.0914 26.4705 14.5451 26.7302 15.5614C27.1536 17.2158 27.4169 17.6266 28.5717 18.232C28.2358 18.4112 27.6749 18.4324 27.3055 18.2866C27.6565 18.9053 29.6326 21.3482 25.2393 23.184C25.5731 23.2824 26.3564 23.3243 26.7802 23.2595C26.5565 23.6617 23.706 25.2068 21.9504 25.3878C18.3309 26.5411 10.4737 25.973 5.46655 23.6257C4.58412 19.6808 5.36495 20.3697 5.47755 17.3944"/>
<path fill-rule="evenodd" clip-rule="evenodd" d="M7.32993 26.9816C7.32993 26.9816 8.13678 27.5986 8.994 27.4987C9.85122 27.3988 11.2863 27.1535 11.3062 24.2834C11.3115 23.5451 10.8507 22.0933 10.8003 21.2636L10.7762 20.8748C10.7762 20.8748 9.68401 18.1598 9.74666 17.3159C9.80931 16.472 9.89651 14.5622 11.7871 14.312C12.0686 14.2747 12.3249 14.2485 12.5577 14.2286C13.4433 13.7576 14.6984 13.4723 16.6383 13.4723C19.9787 13.4723 22.3124 13.0251 23.8046 13.7138C25.2968 14.4026 25.8423 14.8905 26.2154 16.2394C26.5886 17.5883 26.7319 19.3961 26.3875 21.2329C26.0431 23.0697 25.1279 24.9353 24.9595 25.6211C24.791 26.3068 26.8805 26.2112 27.2773 25.7453C27.6742 25.2794 28.0203 23.9362 28.1473 23.5286C28.2742 23.1209 27.5428 15.5756 27.1031 14.5272C26.6635 13.4789 23.5494 10.0034 17.2515 11.3019C10.9535 12.6005 8.29192 12.4705 7.77251 17.7297C7.2531 22.9888 7.32993 26.9816 7.32993 26.9816Z"/>
<path fill-rule="evenodd" clip-rule="evenodd" d="M7.6378 27.3436L7.77093 27.3199L7.87676 27.3648C9.62038 28.1103 11.7446 28.5423 13.6213 28.7536C16.0725 29.0287 18.6431 28.9813 21.0604 28.4684C22.0878 28.2504 23.0991 27.9452 24.0659 27.5341L24.9549 24.8386C24.8799 24.8608 24.8051 24.8827 24.7303 24.9042C23.204 25.5924 21.0955 26.1709 18.4155 26.3144C15.9538 26.4459 13.3921 26.2797 11.0823 25.9122C10.6408 27.2598 9.65023 27.4206 8.99621 27.4966C8.4459 27.5601 7.91528 27.329 7.60669 27.155L7.6378 27.3436Z"/>
<path fill-rule="evenodd" clip-rule="evenodd" d="M5.41449 22.6212C6.84298 22.9956 6.41521 23.4117 9.21928 22.9154C12.0233 22.4191 14.6841 22.0724 16.1206 22.1037C17.5572 22.135 17.1821 22.4212 18.7095 21.7651C20.2368 21.1089 21.8189 20.4695 22.7189 21.165C23.6189 21.8605 22.833 22.5147 23.8075 22.4773C26.0803 22.3901 26.0045 22.4984 27.9486 21.4979C26.6998 22.8119 26.7383 22.7361 25.2394 23.1823C25.5731 23.2807 26.3565 23.3226 26.7802 23.2578C26.5565 23.66 23.7061 25.205 21.9506 25.386C18.8125 26.3869 12.4867 26.0921 7.59669 24.4649C6.05518 23.9523 6.52549 23.3994 5.41406 22.6206"/>
<path fill-rule="evenodd" clip-rule="evenodd" d="M3.52212 19.42C3.20463 15.9203 3.61208 12.2234 5.51871 9.1941C7.0181 6.81267 9.26127 5.14984 11.9396 4.31504C14.4425 3.53485 17.1998 3.52194 19.7242 4.2145C22.1372 4.87616 24.4203 6.21197 25.9441 8.22637C27.148 9.81829 27.9182 11.7899 28.3993 13.7144C28.9031 15.7252 29.1477 17.8816 29.1295 19.9538C29.1187 21.1893 29.0026 23.1381 28.4679 24.2673C28.1754 24.8845 27.4811 26.0908 26.6167 25.7913C26.2398 25.6607 26.0452 25.2871 25.9703 24.919C25.8791 24.4775 25.9312 23.9841 26.0374 23.5502C26.4535 21.8505 26.6544 19.853 26.4722 18.1049C26.3151 16.5991 25.9055 14.8637 24.5016 14.0376C23.6842 13.5565 22.6553 13.4375 21.7242 13.4007C20.4966 13.3518 19.2546 13.4284 18.0238 13.4197C17.1085 13.4132 16.1927 13.4104 15.2792 13.4741C12.9471 13.6373 10.24 14.215 10.1371 17.0472C10.1045 17.9462 10.1242 18.854 10.1494 19.7529C10.1759 20.6931 10.2156 21.6336 10.2341 22.5738C10.2455 23.1766 10.2728 23.9676 10.1648 24.5579C9.97626 25.5874 9.51907 27.3927 8.24806 27.5586C7.12626 27.7055 6.1285 26.458 5.59448 25.6291C4.74573 24.3122 4.13403 22.6739 3.79537 21.1488C3.66745 20.5791 3.57618 20.0017 3.52212 19.4202"/>
<path fill-rule="evenodd" clip-rule="evenodd" d="M5.131 18.904C3.36757 3.35901 19.8994 2.11665 25.1374 8.96166C28.398 13.2226 28.4188 21.1206 27.424 23.1965C26.4292 25.2724 25.4351 24.4263 25.8488 22.7763C26.1821 21.4143 26.4436 19.4683 26.2579 17.7027C25.6906 12.3253 22.2516 13.156 18.1334 13.1269C15.1078 13.1057 10.6532 13.0962 10.5183 16.764C10.4342 19.0558 10.7309 22.5109 10.5487 23.5474C9.43097 29.2843 5.47664 23.7991 5.131 18.904Z"/>
<path fill-rule="evenodd" clip-rule="evenodd" d="M6.01644 11.2C7.67881 11.3694 9 14.0472 9 17.3279C9 20.0956 8.0592 22.4349 6.76644 23.2C5.93543 21.971 5.24315 20.0516 5.11504 18.2244C4.79082 15.345 5.17087 13.0207 6.01644 11.2Z"/>
<path fill-rule="evenodd" clip-rule="evenodd" d="M4.28414 13.0596C5.68108 13.0596 6.81365 15.2754 6.81365 18.0087C6.81365 20.498 5.87432 22.5579 4.65115 22.9058C4.26107 21.7938 3.98655 20.5736 3.90358 19.3849C3.63287 16.9697 3.75965 14.8692 4.1927 13.0632C4.22297 13.0611 4.25345 13.0596 4.28414 13.0596Z"/>
<path fill-rule="evenodd" clip-rule="evenodd" d="M17.0061 23.7292C17.0061 23.7292 17.0061 23.4731 17.2741 23.5895C17.542 23.7059 18.9391 23.9737 19.7309 23.8456C20.5226 23.7176 21.1747 23.2517 21.3606 23.0305C21.5464 22.8093 21.6981 22.7511 21.7204 22.9247C21.7426 23.0982 21.6971 23.402 22.0465 23.402C22.396 23.402 22.8148 23.2856 22.7566 23.4136C22.6984 23.5417 21.5472 24.3807 20.3364 24.393C19.1256 24.4053 17.146 23.8456 17.0061 23.7292Z"/>
<path fill-rule="evenodd" clip-rule="evenodd" d="M21.1228 21.975C20.9088 21.812 20.4792 21.4881 20.636 21.2062C20.9803 20.5876 22.3715 20.5639 22.7152 21.1824C22.8467 21.4183 22.1421 22.1503 21.9533 22.2997C21.8475 22.3829 21.5935 22.3844 21.4877 22.301C21.4072 22.2375 21.1224 21.975 21.1224 21.975"/>
<path fill-rule="evenodd" clip-rule="evenodd" d="M27.1628 13.7409C27.4681 13.7287 27.7737 13.717 28.0789 13.7111C28.2514 13.7077 28.4599 13.699 28.6292 13.7191C29.2464 13.7913 29.381 14.6335 29.4488 15.1242C29.5521 15.8726 29.5785 16.6482 29.641 17.4026C29.7117 18.2611 29.8103 19.8488 28.6358 20.0061C28.4637 20.0292 28.273 20.0341 28.0992 20.0417C27.7961 20.0554 27.493 20.0654 27.1891 20.0747L26.7937 20.087L26.9776 13.7488L27.1628 13.7409Z"/>
<path fill-rule="evenodd" clip-rule="evenodd" d="M27.179 14.1245C27.8795 14.0959 28.4305 14.0821 28.5854 14.1001C29.1131 14.1619 29.1245 15.7981 29.2595 17.434C29.3946 19.0699 29.1027 19.5565 28.5858 19.6258C28.4271 19.6469 27.8719 19.6698 27.179 19.6912V14.1245Z"/>
<path fill-rule="evenodd" clip-rule="evenodd" d="M9.09434 20.3859C8.14555 20.4431 7.19633 20.4957 6.24669 20.5438C5.64876 20.5741 5.0504 20.6031 4.45205 20.624C4.2315 20.6317 4.01053 20.6386 3.78998 20.641C3.65812 20.6425 3.50805 20.6463 3.37746 20.631C2.74989 20.5572 2.65041 19.7016 2.60448 19.2091C2.53464 18.4589 2.54289 17.6851 2.51432 16.9305C2.48151 16.0593 2.45886 14.4985 3.61854 14.3442C3.92713 14.3031 4.2933 14.3018 4.60592 14.2908C5.15623 14.2713 5.70845 14.2567 6.25982 14.2432C7.143 14.2212 8.02639 14.2023 8.90999 14.1865L9.28949 14.1797L9.46538 20.3637L9.09434 20.3859Z"/>
<path fill-rule="evenodd" clip-rule="evenodd" d="M9.07145 20.0025C9.07145 20.0025 3.94721 20.3113 3.42251 20.2495C2.89781 20.1877 2.95941 18.5516 2.89781 16.9156C2.83622 15.2797 3.1499 14.7931 3.66952 14.7239C4.18914 14.6547 8.91715 14.5696 8.91715 14.5696L9.07145 20.0025Z"/>
<path fill-rule="evenodd" clip-rule="evenodd" d="M19.3633 19.0038C17.2226 20.7953 13.6952 24.2054 11.1917 21.6358C10.0487 20.4632 9.66434 18.4245 9.62539 16.8652C9.51956 12.6493 15.4283 14.3424 17.8702 14.6021C20.3177 14.8627 20.8699 15.0559 22.8957 14.421C24.9215 13.786 26.3619 13.4189 26.8879 14.4165C27.358 15.3084 27.7392 18.8862 27.0805 20.8256C26.6379 22.129 25.7906 22.7629 24.3568 21.0555C23.0765 19.5315 21.6325 17.1048 19.3633 19.0038ZM11.306 24.2827C14.6564 25.349 16.4451 23.3672 18.1592 21.795C19.1646 20.8728 19.8918 20.4503 20.6413 20.2653C21.3908 20.0804 22.4148 20.604 22.9342 21.3448C23.4537 22.0856 24.8265 23.6902 25.6124 24.0295C26.3983 24.3688 27.729 23.6593 28.2601 20.9746C28.7911 18.2899 28.5812 15.2092 27.6816 13.3885C26.782 11.5678 23.4213 12.3187 18.9586 12.3187C14.4959 12.3187 10.3156 12.6847 9.19572 12.9381C8.24324 13.1531 7.698 13.9462 7.61969 14.8354C7.53502 15.7934 7.36972 18.0397 7.51936 19.5163C7.70922 21.3829 9.58095 23.7336 11.306 24.2827Z"/>
<path fill-rule="evenodd" clip-rule="evenodd" d="M19.3634 19.0042C17.2226 20.7957 13.6952 24.2058 11.1916 21.6362C10.0486 20.4636 9.66424 18.4249 9.6253 16.8656C9.51946 12.6497 15.4283 14.3428 17.8703 14.6025C20.3178 14.863 20.8701 15.0563 22.8959 14.4213C24.9218 13.7863 26.3622 13.4193 26.8881 14.4168C27.3583 15.3088 27.7395 18.8865 27.0808 20.8259C26.6382 22.1294 25.7909 22.7633 24.357 21.0558C23.0767 19.5318 21.6327 17.1052 19.3634 19.0042ZM15.041 23.659C15.6646 23.4144 17.3532 22.0138 17.901 21.5115C18.6797 20.7974 19.5308 20.1391 20.565 19.8838C21.5645 19.637 22.7194 20.3374 23.261 21.1094C23.7267 21.7746 25.0583 23.3545 25.7839 23.6679C26.1264 23.8161 26.5112 23.6015 26.769 23.3574C27.3911 22.769 27.7156 21.7213 27.8747 20.917C28.3105 18.7142 28.3213 15.7454 27.3392 13.7565C26.8503 12.7663 25.8692 12.6184 24.8672 12.6461C23.5 12.684 22.1075 13.2717 20.0225 13.2508C17.9815 13.2296 17.5346 12.8948 12.8096 13.1829C10.803 13.3052 8.39975 13.2326 8.21645 15.7346C8.16692 16.4096 8.12924 17.0853 8.11781 17.7596C8.05241 21.585 11.6975 24.9705 15.0406 23.6592L15.041 23.659Z"/>
<path fill-rule="evenodd" clip-rule="evenodd" d="M19.3627 19.0038C17.222 20.7953 13.6947 24.2053 11.1912 21.6358C10.0483 20.4632 9.66388 18.4245 9.62494 16.8652C9.51911 12.6494 15.4278 14.3425 17.8697 14.6022C20.3171 14.8627 20.8693 15.056 22.8951 14.421C24.9209 13.786 26.3612 13.419 26.8872 14.4165C27.3573 15.3085 27.7385 18.8861 27.0798 20.8256C26.6372 22.129 25.79 22.7629 24.3562 21.0554C23.0759 19.5315 21.6319 17.1048 19.3627 19.0038ZM19.1185 18.7075C19.7791 18.1549 20.5503 17.7948 21.3987 17.9514C22.7916 18.2086 23.8076 19.7768 24.6625 20.7944C24.9012 21.0787 25.5938 21.8508 26.0626 21.6728C26.3847 21.5505 26.6076 21.0095 26.7073 20.7159C26.9763 19.9233 27.0394 18.9318 27.0383 18.1125C27.0387 17.3885 26.985 16.6654 26.8775 15.9494C26.8199 15.572 26.7126 14.9482 26.5365 14.614C26.4846 14.511 26.4085 14.4221 26.3149 14.3547C26.0103 14.1412 25.4979 14.1827 25.1397 14.2362C24.4337 14.342 23.6818 14.5821 22.9959 14.7971C22.2705 15.0234 21.5555 15.2043 20.802 15.2363C20.3666 15.2543 19.9355 15.2242 19.5054 15.1819C18.9392 15.126 18.3747 15.0549 17.8092 14.9944C17.2878 14.9389 16.7655 14.8462 16.2488 14.7645C15.635 14.6665 15.0212 14.574 14.4006 14.512C13.3237 14.4062 11.5009 14.3077 10.6104 15.1258C10.1213 15.5749 10.0032 16.2199 10.0178 16.8385C10.055 18.3348 10.4235 20.2736 11.4782 21.3566C11.9314 21.8223 12.473 22.1247 13.1423 22.1651C15.1668 22.2856 17.6271 19.9563 19.118 18.7075H19.1185Z"/>
<path fill-rule="evenodd" clip-rule="evenodd" d="M19.1183 18.7076C19.7789 18.1549 20.5502 17.7949 21.3985 17.9515C22.793 18.2084 23.8083 19.7767 24.6627 20.7944C24.9015 21.0786 25.594 21.8508 26.0629 21.6728C26.385 21.5504 26.6079 21.0092 26.7076 20.7158C26.8433 20.316 26.9264 19.8656 26.9758 19.412L26.7749 19.4196C26.7749 19.4196 26.8545 18.0649 26.3895 16.5213C26.0796 15.4928 25.4285 14.6798 25.0287 14.2524C24.3552 14.3653 23.6461 14.5911 22.9968 14.7958C22.2714 15.0231 21.5575 15.2041 20.8027 15.2352C20.3673 15.2532 19.9362 15.2231 19.5061 15.1808C18.9399 15.1249 18.3754 15.0538 17.8099 14.9933C17.2886 14.9378 16.7662 14.8451 16.2495 14.7634C15.6357 14.6654 15.0219 14.5729 14.4013 14.5109C13.3244 14.4051 11.5016 14.3066 10.6111 15.1247C10.122 15.5739 10.0039 16.2188 10.0185 16.8375C10.0558 18.3338 10.4245 20.2726 11.4789 21.3557C11.9321 21.8213 12.4737 22.1238 13.143 22.1642C15.1671 22.2857 17.6274 19.9564 19.1183 18.7076Z"/>
<path fill-rule="evenodd" clip-rule="evenodd" d="M16.8529 14.8613L14.4582 21.9504C14.8731 21.8054 15.293 21.5967 15.7083 21.3492L17.8985 15.0035L17.8092 14.994C17.4902 14.9601 17.1711 14.9125 16.8529 14.8617V14.8613ZM16.5039 14.8052L14.0487 22.0725C13.7532 22.1479 13.4482 22.1787 13.1436 22.1637C12.581 22.1298 12.1092 21.9097 11.7043 21.5658L14.0961 14.4839C14.2019 14.4926 14.3044 14.5019 14.4 14.5116C15.02 14.573 15.6346 14.6661 16.2482 14.7641L16.5039 14.8052ZM25.4287 14.7224L23.7566 19.674C24.0165 19.9849 24.2601 20.3005 24.4915 20.5862L26.1073 15.8027C25.9191 15.4199 25.6917 15.0578 25.4287 14.722V14.7224ZM25.1675 14.4062L23.4918 19.3671C22.9066 18.7109 22.2396 18.1274 21.4504 17.9625L22.4663 14.9529C22.6424 14.9044 22.8185 14.8517 22.9955 14.7965C23.6457 14.5927 24.3547 14.366 25.0274 14.2532C25.0723 14.2993 25.1188 14.3503 25.1675 14.4058V14.4062Z"/>
<path fill-rule="evenodd" clip-rule="evenodd" d="M25.8073 16.6887C25.8192 16.7112 25.8308 16.7336 25.8422 16.7565C25.9043 16.8796 25.9601 17.0058 26.0093 17.1347C26.0728 17.8455 25.6223 18.654 24.9649 19.2462L24.9348 19.2729L25.8073 16.6887Z"/>
<path fill-rule="evenodd" clip-rule="evenodd" d="M25.0822 15.7483C25.0979 15.7616 25.1133 15.7752 25.1288 15.7891C25.3899 16.0245 25.6228 16.3382 25.8078 16.6884L24.9347 19.2725C24.6406 19.5349 24.3052 19.7469 23.942 19.9C23.881 19.8248 23.8191 19.7496 23.7563 19.6744L25.0822 15.7483Z"/>
<path fill-rule="evenodd" clip-rule="evenodd" d="M24.7853 15.5361C24.8026 15.5461 24.82 15.5573 24.8371 15.567C24.9232 15.621 25.005 15.6814 25.0821 15.7476L23.7559 19.6739C23.6695 19.5706 23.5814 19.4675 23.4912 19.3666V19.3653L24.7853 15.5361Z"/>
<path fill-rule="evenodd" clip-rule="evenodd" d="M22.4365 18.4014C22.1893 18.002 22.3095 16.9902 22.6646 16.4054C22.7524 16.2613 23.0214 16.021 23.1128 15.9126C23.6582 15.2662 24.2576 15.2328 24.7847 15.5363L23.4902 19.3655C23.1662 19.002 22.8172 18.6613 22.4362 18.4014"/>
<path fill-rule="evenodd" clip-rule="evenodd" d="M12.1923 20.1194C11.548 19.5022 11.0125 18.6725 10.636 17.7064C11.5658 16.4365 12.6626 15.7998 13.6883 15.6899L12.1923 20.1194Z"/>
<path fill-rule="evenodd" clip-rule="evenodd" d="M14.329 21.245C13.5487 21.118 12.8246 20.7214 12.2019 20.1272L12.1936 20.1194L13.6897 15.6907C13.7092 15.6886 13.7289 15.6869 13.7483 15.6852C14.1481 15.6475 14.5514 15.6948 14.9315 15.8242C15.3117 15.9535 15.6601 16.1618 15.954 16.4355L14.329 21.245Z"/>
<path fill-rule="evenodd" clip-rule="evenodd" d="M14.6826 21.2846C14.565 21.2777 14.4479 21.2647 14.3317 21.2456H14.3276L15.9526 16.4363C15.9663 16.449 15.9799 16.4621 15.9936 16.475C16.0751 16.5525 16.1522 16.6344 16.2248 16.7203L14.6826 21.2846Z"/>
<path fill-rule="evenodd" clip-rule="evenodd" d="M15.7665 21.1766C15.4145 21.2684 15.0503 21.305 14.687 21.2849H14.6838L16.226 16.72C16.2383 16.7346 16.2503 16.7492 16.2624 16.764C16.5397 17.1092 16.7528 17.5013 16.8917 17.9217L15.7665 21.1766Z"/>
<path fill-rule="evenodd" clip-rule="evenodd" d="M16.202 21.0359C16.0614 21.0901 15.9177 21.1362 15.7719 21.1741L15.7664 21.1756L16.8908 17.9207C16.8978 17.9418 16.9046 17.963 16.912 17.9831C17.1307 18.6625 17.2063 19.4745 17.0875 20.396C16.8 20.6179 16.5037 20.8344 16.2026 21.0357"/>
<path fill-rule="evenodd" clip-rule="evenodd" d="M24.8254 14.2899C25.8391 15.176 26.3986 16.8327 26.4731 18.1042C26.5578 19.5456 26.5631 20.1082 26.366 21.4161C26.5271 21.1994 26.6431 20.906 26.7076 20.7162C26.9766 19.9235 27.0396 18.932 27.0386 18.1126C27.039 17.3886 26.9852 16.6655 26.8777 15.9494L26.8665 15.8766L26.7944 17.5767C26.6494 16.6468 26.4594 15.068 25.3998 14.2048C25.3084 14.2129 25.2205 14.2241 25.1403 14.2359C25.0362 14.2516 24.9313 14.27 24.8254 14.291"/>
<path fill-rule="evenodd" clip-rule="evenodd" d="M14.295 16.4364C15.2377 16.2658 16.1787 17.1012 16.3952 18.3023C16.6118 19.5035 16.0246 20.6153 15.083 20.7859C14.1413 20.9564 13.1993 20.1211 12.9825 18.9199C12.7658 17.7188 13.3531 16.607 14.2948 16.4364H14.295ZM15.6777 21.3679C13.6988 21.4553 11.9463 19.7312 11.0808 17.865C13.7443 14.2246 17.4093 16.1026 17.5189 20.0554C16.9405 20.5228 16.3152 20.9909 15.6779 21.3673L15.6777 21.3679ZM13.86 17.0379C13.9608 17.0379 14.0593 17.0678 14.1431 17.1238C14.2269 17.1797 14.2922 17.2593 14.3307 17.3524C14.3693 17.4455 14.3794 17.5479 14.3597 17.6467C14.34 17.7456 14.2915 17.8363 14.2203 17.9076C14.149 17.9788 14.0583 18.0274 13.9594 18.047C13.8606 18.0667 13.7582 18.0566 13.6651 18.018C13.572 17.9795 13.4924 17.9142 13.4364 17.8304C13.3805 17.7466 13.3506 17.6481 13.3506 17.5474C13.3506 17.4122 13.4043 17.2827 13.4998 17.1871C13.5953 17.0916 13.7249 17.0379 13.86 17.0379Z"/>
<path fill-rule="evenodd" clip-rule="evenodd" d="M23.1642 16.3558C23.2533 16.3558 23.3404 16.3822 23.4144 16.4317C23.4885 16.4812 23.5462 16.5515 23.5803 16.6339C23.6144 16.7162 23.6233 16.8067 23.6059 16.8941C23.5886 16.9815 23.5457 17.0617 23.4827 17.1247C23.4197 17.1877 23.3394 17.2306 23.2521 17.248C23.1647 17.2654 23.0742 17.2564 22.9919 17.2224C22.9096 17.1883 22.8392 17.1305 22.7897 17.0565C22.7402 16.9824 22.7138 16.8953 22.7138 16.8062C22.7138 16.6868 22.7613 16.5722 22.8457 16.4877C22.9302 16.4033 23.0448 16.3558 23.1642 16.3558ZM24.1101 15.7483C23.3363 15.6029 22.565 16.3149 22.3858 17.3386C22.3216 17.693 22.34 18.0575 22.4397 18.4037C22.8561 18.6881 23.2341 19.0693 23.5826 19.4711C24.3151 19.5267 25.0187 18.8361 25.188 17.8652C25.3668 16.8414 24.884 15.8937 24.1101 15.7483ZM22.1841 18.2449C22.1841 17.5932 22.2791 16.8979 22.5955 16.3787C23.7191 14.5342 25.1875 15.7225 25.7615 17.2215C25.8481 18.1924 24.9755 19.3464 23.9255 19.8809C23.4184 19.2558 22.8486 18.6179 22.1847 18.2449H22.1841Z"/>
<path fill-rule="evenodd" clip-rule="evenodd" d="M10.7368 20.251C10.6098 18.1979 10.5319 16.2571 11.0987 15.5013C11.3739 15.1341 11.6914 14.7992 12.0955 14.5122C11.5191 14.6003 10.9827 14.7819 10.6102 15.1239C10.121 15.5731 10.0029 16.218 10.0175 16.8367C10.0442 17.9066 10.2404 19.2031 10.7359 20.251"/>
<path fill-rule="evenodd" clip-rule="evenodd" d="M28.1589 39.3873C27.01 38.5599 27.1641 37.1176 25.8332 37.542C25.5955 37.5902 25.5024 37.9994 25.7189 38.5427C25.9354 39.1598 25.67 39.2412 24.6123 39.5405C23.5547 39.8398 21.7761 39.7118 20.3131 39.9078C15.1452 40.5997 12.7756 40.0227 7.94597 40.0227C5.49939 39.7874 5.4598 39.6762 3.19228 38.7851C1.93735 38.7309 0.267136 39.3608 2.19092 35.7699C3.02105 34.2203 5.73285 30.7889 6.34158 30.4016C6.74966 30.1418 7.16579 30.1662 7.53873 30.2657C8.34304 30.4799 9.17022 30.9445 9.96733 31.1606C12.6859 31.8974 18.4786 32.6594 21.6686 31.5056C22.1723 31.3236 24.6646 30.374 25.9039 30.3025C26.8278 30.3002 27.8954 30.9771 28.4438 31.6783C29.4572 32.9769 30.154 33.1035 29.5205 33.9586C28.887 34.8138 28.2222 34.8138 28.1589 35.2255C28.0956 35.6372 29.3307 35.7955 29.6473 35.0671C29.964 34.3388 30.629 33.642 30.629 33.9904C30.629 34.3388 29.9957 35.9538 30.6607 35.9538C31.3258 35.9538 31.6109 35.5739 31.3891 35.1304C31.1673 34.687 31.3891 34.117 31.8325 34.1803C32.0717 34.2145 32.404 34.267 32.8815 34.3731C32.7278 35.0671 32.6762 36.0135 32.6582 37.1716C32.637 38.5201 32.7661 39.5198 33.0627 40.1654C31.4278 40.4863 29.2924 40.4668 28.1589 39.3873Z"/>
<path fill-rule="evenodd" clip-rule="evenodd" d="M4.16992 39.346C4.16992 39.346 4.8995 32.4796 4.96596 31.5798C5.03242 30.68 5.04491 30.2865 5.80496 30.36C6.56502 30.4334 6.55041 30.6652 6.18594 33.4503C5.82147 36.2353 5.43753 39.5381 5.43753 39.5381L4.16992 39.346Z"/>
<path fill-rule="evenodd" clip-rule="evenodd" d="M3.70768 39.8109C3.70768 39.8109 3.57223 32.9072 3.52545 32.0063C3.47867 31.1054 3.44206 30.7132 4.20528 30.691C4.96851 30.6688 4.9829 30.9006 4.96999 33.7089C4.95708 36.5173 4.98925 39.8426 4.98925 39.8426L3.70768 39.8109Z"/>
<path d="M25.2576 31.1179L22.2312 32.0457L22.3909 32.5667L25.4173 31.6389L25.2576 31.1179Z"/>
<path d="M26.2379 31.9725L22.0691 33.2471L22.4996 34.6552L26.6684 33.3806L26.2379 31.9725Z"/>
<path fill-rule="evenodd" clip-rule="evenodd" d="M17.4631 28.9032C18.554 33.1007 20.0766 35.9304 18.5129 44.3714C18.4611 44.6508 18.5646 44.6612 19.0209 44.6923C19.4772 44.7234 20.1697 44.7134 20.4601 44.6819C20.7505 44.6504 20.8534 44.5265 21.0087 43.7916C22.3068 37.6479 22.1472 34.5843 20.8716 28.5076C21.0263 27.8963 21.3237 26.7319 21.5467 25.9158C20.5142 26.1282 19.4671 26.2616 18.4143 26.315C18.2568 26.3232 18.099 26.3302 17.9408 26.3361L17.4631 28.9032Z"/>
<path fill-rule="evenodd" clip-rule="evenodd" d="M19.3407 26.6348C19.4624 26.6348 19.5813 26.6709 19.6825 26.7385C19.7837 26.8061 19.8626 26.9022 19.9092 27.0146C19.9557 27.127 19.9679 27.2507 19.9442 27.3701C19.9204 27.4894 19.8618 27.5991 19.7758 27.6851C19.6897 27.7711 19.5801 27.8297 19.4607 27.8535C19.3413 27.8772 19.2176 27.865 19.1052 27.8185C18.9928 27.7719 18.8967 27.693 18.829 27.5919C18.7614 27.4907 18.7253 27.3717 18.7253 27.25C18.7254 27.0869 18.7902 26.9304 18.9056 26.815C19.021 26.6997 19.1775 26.6348 19.3407 26.6348Z"/>
<path fill-rule="evenodd" clip-rule="evenodd" d="M11.6605 68.2877C11.5995 68.0054 11.517 67.7209 11.4448 67.4411C11.2705 66.7654 11.0956 66.09 10.9199 65.4146C10.4005 63.4156 9.87993 61.417 9.35826 59.4189C8.58612 56.458 7.81313 53.4973 7.0393 50.5367C5.39978 45.1311 3.77253 39.9098 1.88007 34.5967C0.583219 30.9549 -2.03016 26.9397 -2.97522 23.3787C-3.27155 22.2628 -3.47115 20.8387 -2.25727 19.6799C-1.13547 18.6097 1.48786 17.7842 3.00462 18.1657C4.50741 18.5435 4.82914 20.3608 5.03911 21.4252C5.75565 25.0582 6.58063 28.6587 7.51406 32.2267C7.61608 32.6172 7.71937 33.0074 7.82393 33.3972C8.49278 35.8898 9.20988 38.3692 9.95027 40.8409C11.6825 46.6257 13.1675 52.4783 15.2378 58.1585C15.867 59.8852 16.5067 61.6087 17.1569 63.3289C17.5275 64.31 17.8829 65.2997 18.1955 66.2994C18.4813 67.2118 19.2907 68.9813 17.482 69.7283C17.0602 69.9025 14.6019 70.6384 14.1693 70.711C13.2719 70.8628 12.7584 70.5254 12.3973 70.0672C12.2186 69.8407 12.0914 69.5634 11.986 69.3062C11.859 68.9942 11.7191 68.6209 11.6596 68.2877"/>
<path fill-rule="evenodd" clip-rule="evenodd" d="M10.4604 68.047C10.4323 67.7593 10.3832 67.4675 10.3438 67.1811C10.2485 66.4896 10.1526 65.7982 10.0559 65.1068C9.77061 63.0614 9.48402 61.0162 9.19616 58.9711C8.77043 55.9409 8.344 52.9107 7.91687 49.8805C6.91168 44.322 5.89718 38.9476 4.6308 33.452C3.76298 29.6844 1.62942 25.395 1.10132 21.7482C0.936011 20.6053 0.901721 19.1678 2.24112 18.1567C3.47829 17.2229 6.17996 16.7056 7.64255 17.2595C9.09075 17.8077 9.20187 19.6502 9.2876 20.7308C9.58054 24.4222 9.98608 28.0867 10.5006 31.7458C10.5571 32.1454 10.6147 32.5448 10.6736 32.944C11.0505 35.4973 11.4779 38.0428 11.9272 40.5834C12.9809 46.5294 13.7814 52.5145 15.1828 58.3953C15.6087 60.1833 16.0454 61.9691 16.493 63.7528C16.747 64.77 16.9868 65.794 17.1822 66.8232C17.3606 67.7625 17.9607 69.6135 16.0777 70.1476C15.6388 70.272 13.1121 70.719 12.674 70.7417C11.7651 70.7891 11.2937 70.3948 10.9879 69.898C10.8365 69.6523 10.7421 69.3621 10.6672 69.0947C10.5762 68.77 10.4812 68.3831 10.4604 68.0453"/>
<path d="M5.93636 20.5174L5.92662 20.4636L5.8083 20.5125L5.93636 20.5174ZM4.93941 21.7238L5.99203 22.0612L6.82726 21.4624L4.72605 21.2264C4.69279 21.2227 4.66173 21.208 4.6378 21.1846C4.61386 21.1612 4.59844 21.1305 4.59397 21.0973L4.46253 20.3642C4.45644 20.3299 4.46241 20.2947 4.47944 20.2644C4.49646 20.2341 4.52348 20.2106 4.55587 20.198L6.73434 19.1067C6.76991 19.0889 6.81109 19.0859 6.84883 19.0985C6.88658 19.111 6.9178 19.138 6.93564 19.1736C6.94308 19.1885 6.94801 19.2045 6.95024 19.221L7.06602 19.8661C7.07237 19.9019 7.06553 19.9388 7.04677 19.9699C7.02802 20.0011 6.99861 20.0243 6.964 20.0354L6.63274 20.172L6.69963 20.5474L7.06941 20.5618C7.10464 20.5632 7.13827 20.5769 7.16437 20.6006C7.19047 20.6243 7.20736 20.6564 7.21207 20.6914C7.29166 21.1375 7.37111 21.5835 7.45041 22.0293C7.45573 22.0592 7.45182 22.0901 7.43919 22.1178C7.42657 22.1455 7.40583 22.1688 7.37971 22.1844L6.60861 22.7309L7.39792 22.5904C7.4371 22.5834 7.47744 22.5923 7.51007 22.6151C7.5427 22.6379 7.56494 22.6727 7.57191 22.7119C7.57203 22.7137 7.57203 22.7155 7.57191 22.7174L7.6807 23.3276C7.68766 23.3667 7.6788 23.407 7.65606 23.4397C7.63332 23.4723 7.59856 23.4945 7.55942 23.5016H7.55392L5.24675 23.9126C5.22736 23.9161 5.20748 23.9157 5.18824 23.9115C5.16899 23.9073 5.15077 23.8993 5.13461 23.888C5.11845 23.8768 5.10467 23.8624 5.09406 23.8458C5.08344 23.8292 5.07621 23.8107 5.07276 23.7913C5.07266 23.7894 5.07266 23.7875 5.07276 23.7856L4.96396 23.1756C4.96049 23.1562 4.96087 23.1363 4.96509 23.1171C4.9693 23.0978 4.97727 23.0796 4.98853 23.0635C4.9998 23.0473 5.01414 23.0335 5.03073 23.0229C5.04733 23.0123 5.06585 23.0051 5.08525 23.0016H5.09075L5.82121 22.8715L4.94555 22.6041C4.91789 22.5959 4.89319 22.5799 4.87441 22.5581C4.85564 22.5362 4.84359 22.5093 4.83972 22.4807L4.73388 21.8881C4.73041 21.8687 4.73079 21.8488 4.735 21.8296C4.73922 21.8103 4.74719 21.7921 4.75845 21.776C4.76972 21.7598 4.78406 21.746 4.80065 21.7354C4.81725 21.7248 4.83577 21.7176 4.85517 21.7141C4.8835 21.7087 4.91277 21.7118 4.93941 21.7228V21.7238ZM6.10167 24.8117C6.01828 24.8591 6.03394 24.965 6.04749 25.0492L6.44754 24.9779C6.42256 24.8687 6.38404 24.7874 6.2782 24.7768C6.21742 24.7726 6.1566 24.7843 6.10167 24.8107V24.8117ZM6.37684 23.8436C6.62258 23.8728 6.7953 23.9937 6.92146 24.1664C7.05904 24.3545 7.13058 24.5988 7.18138 24.8471L7.78103 24.7412C7.82022 24.7343 7.86056 24.7432 7.89319 24.766C7.92582 24.7887 7.94806 24.8236 7.95502 24.8627C7.95514 24.8646 7.95514 24.8664 7.95502 24.8682L8.06382 25.4784C8.07078 25.5176 8.06192 25.5579 8.03918 25.5905C8.01644 25.6231 7.98168 25.6454 7.94253 25.6524H7.93682L5.62966 26.0635C5.61027 26.0669 5.59038 26.0666 5.57114 26.0623C5.5519 26.0581 5.53368 26.0502 5.51752 26.0389C5.50136 26.0276 5.48758 26.0133 5.47696 25.9967C5.46635 25.9801 5.45911 25.9616 5.45567 25.9422C5.45567 25.9403 5.45567 25.9384 5.45461 25.9367C5.43979 25.8537 5.42519 25.7824 5.40952 25.7068C5.39132 25.6181 5.37206 25.5244 5.35343 25.4217C5.2495 24.8502 5.2095 24.2038 5.74523 23.9465C5.94304 23.8567 6.1611 23.8208 6.37726 23.8425L6.37684 23.8436ZM6.46807 27.4232C6.55506 27.4867 6.72609 27.4847 6.82959 27.4771C6.90967 27.4706 6.98936 27.46 7.06835 27.4454C7.20361 27.4213 7.3812 27.3848 7.50883 27.3131C7.73066 27.188 7.6843 26.9109 7.43221 26.8709C7.28997 26.8485 7.10942 26.8773 6.97056 26.9021C6.83171 26.9268 6.65666 26.962 6.5303 27.0329C6.39081 27.1105 6.33535 27.3237 6.46849 27.4221L6.46807 27.4232ZM5.70607 26.7395C5.78539 26.5325 5.92683 26.355 6.11099 26.2315C6.20909 26.164 6.31507 26.1088 6.42658 26.0671C6.86812 25.8977 7.44787 25.8626 7.85491 26.1069C8.4264 26.4502 8.5968 27.3643 8.17558 27.8861C7.89576 28.2325 7.38649 28.394 6.9422 28.4108C6.59972 28.4237 6.2509 28.3396 5.99626 28.0914C5.66416 27.7667 5.54203 27.1723 5.70607 26.7384V26.7395ZM6.09723 28.5037L6.57581 28.4825C6.61316 28.4808 6.64979 28.4932 6.67853 28.5171C6.70726 28.541 6.72604 28.5748 6.73117 28.6118L6.85499 29.3073L8.54134 29.007C8.58049 29 8.62081 29.0089 8.65343 29.0316C8.68605 29.0544 8.70831 29.0891 8.71533 29.1283C8.71533 29.1302 8.71533 29.1321 8.71533 29.134L8.82391 29.744C8.82739 29.7634 8.827 29.7833 8.82277 29.8025C8.81854 29.8218 8.81055 29.84 8.79927 29.8562C8.78798 29.8723 8.77362 29.8861 8.757 29.8967C8.74038 29.9073 8.72183 29.9145 8.70242 29.918H8.69691L6.38975 30.329C6.3506 30.336 6.31028 30.3271 6.27766 30.3044C6.24504 30.2816 6.22277 30.2469 6.21576 30.2077C6.21576 30.2058 6.21576 30.2039 6.21576 30.202L5.94419 28.6787C5.93723 28.6396 5.94609 28.5992 5.96883 28.5666C5.99157 28.534 6.02633 28.5117 6.06548 28.5047C6.07595 28.5029 6.0866 28.5021 6.09723 28.5026V28.5037ZM6.44499 30.4401L6.87933 30.4262C6.91644 30.4249 6.95268 30.4375 6.98103 30.4615C7.00939 30.4855 7.02783 30.5191 7.03279 30.5559L7.14603 31.1909L7.34352 31.1557L7.247 30.6143C7.24004 30.5752 7.2489 30.5349 7.27164 30.5022C7.29438 30.4696 7.32914 30.4474 7.36828 30.4403H7.37379L7.79098 30.3661C7.83016 30.3591 7.87051 30.368 7.90314 30.3908C7.93576 30.4136 7.95801 30.4484 7.96497 30.4875C7.96497 30.4892 7.96497 30.4911 7.96497 30.493L8.06086 31.0262L8.29157 30.9852L8.16796 30.2907C8.161 30.2515 8.16986 30.2112 8.1926 30.1786C8.21534 30.146 8.2501 30.1237 8.28924 30.1167H8.29496L8.72528 30.0401C8.74468 30.0366 8.76458 30.037 8.78383 30.0412C8.80309 30.0455 8.82132 30.0535 8.83748 30.0647C8.85364 30.076 8.86742 30.0904 8.87802 30.107C8.88862 30.1236 8.89584 30.1422 8.89927 30.1616C8.89937 30.1634 8.89937 30.1653 8.89927 30.1671L9.15919 31.6189C9.16616 31.658 9.15729 31.6983 9.13455 31.7309C9.11181 31.7636 9.07705 31.7858 9.03791 31.7928H9.03219L6.72503 32.2039C6.68588 32.2108 6.64559 32.2019 6.61301 32.1791C6.58043 32.1563 6.55822 32.1215 6.55125 32.0824C6.55125 32.0805 6.55125 32.0788 6.55125 32.0769L6.2909 30.6147C6.28394 30.5756 6.29284 30.5352 6.31562 30.5026C6.33841 30.47 6.37322 30.4477 6.4124 30.4408C6.42316 30.439 6.4341 30.4384 6.44499 30.4391V30.4401Z"/>
</g>
<defs>
<clipPath id="clip0_4355_53881">
<rect width="32" height="32"/>
</clipPath>
</defs>
</svg>
