<svg width="32" height="32" viewBox="0 0 32 32" xmlns="http://www.w3.org/2000/svg">
<path fill-rule="evenodd" clip-rule="evenodd" d="M21.7081 3.00024C22.1396 3.00024 22.4894 3.35002 22.4894 3.78149V5.34399C22.4894 5.77547 22.1396 6.12524 21.7081 6.12524C21.2766 6.12524 20.9269 5.77547 20.9269 5.34399V3.78149C20.9269 3.35002 21.2766 3.00024 21.7081 3.00024ZM28.3356 5.74621C28.6407 6.05131 28.6407 6.54597 28.3356 6.85107L27.2308 7.95592C26.9257 8.26102 26.431 8.26102 26.1259 7.95592C25.8208 7.65083 25.8208 7.15616 26.1259 6.85107L27.2308 5.74621C27.5358 5.44112 28.0305 5.44112 28.3356 5.74621ZM30.3019 13.1565C30.7333 13.1565 31.0831 12.8067 31.0831 12.3752C31.0831 11.9438 30.7333 11.594 30.3019 11.594H28.7394C28.3079 11.594 27.9581 11.9438 27.9581 12.3752C27.9581 12.8067 28.3079 13.1565 28.7394 13.1565H30.3019ZM28.3371 19.0045C28.032 19.3096 27.5374 19.3096 27.2323 19.0045L26.1274 17.8996C25.8223 17.5945 25.8223 17.0999 26.1274 16.7948C26.4325 16.4897 26.9272 16.4897 27.2323 16.7948L28.3371 17.8996C28.6422 18.2047 28.6422 18.6994 28.3371 19.0045ZM16.1849 7.95567C16.49 8.26077 16.9847 8.26077 17.2898 7.95567C17.5949 7.65057 17.5949 7.15591 17.2898 6.85082L16.1849 5.74596C15.8798 5.44087 15.3852 5.44087 15.0801 5.74596C14.775 6.05106 14.775 6.54572 15.0801 6.85082L16.1849 7.95567ZM22.1127 26.4587H4.2205C3.10688 26.4587 1.82734 25.7938 1.42754 24.4019C1.25718 23.8087 1.16663 23.1827 1.16663 22.5386C1.16663 19.5289 3.18328 16.8523 6.04133 16.2064C7.34735 12.8859 10.4634 10.4584 14.2192 10.4584C15.2258 10.4584 16.1861 10.6324 17.0778 10.9511C17.7299 8.94785 19.6125 7.5 21.8333 7.5C24.5947 7.5 26.8333 9.73858 26.8333 12.5C26.8333 14.9377 25.0887 16.968 22.78 17.4105C22.7821 17.4191 22.7843 17.4278 22.7864 17.4364C24.2547 18.6371 25.1666 20.4955 25.1666 22.5385C25.1666 23.1826 25.0761 23.8088 24.9057 24.4019C24.5059 25.7938 23.2263 26.4587 22.1127 26.4587ZM22.0798 15.49C23.6214 15.3646 24.8333 14.0738 24.8333 12.5C24.8333 10.8431 23.4902 9.5 21.8333 9.5C20.3955 9.5 19.1939 10.5115 18.9014 11.8617C20.2543 12.7512 21.3525 14.0115 22.0798 15.49ZM20.9794 18.6087C20.4692 15.1246 17.6369 12.4584 14.2192 12.4584C10.9825 12.4584 8.27067 14.8498 7.55933 18.0627C7.49892 18.06 7.43817 18.0586 7.37712 18.0586C5.05173 18.0586 3.16663 20.0644 3.16663 22.5386C3.16663 22.9948 3.23071 23.435 3.34982 23.8498C3.45875 24.229 3.82594 24.4587 4.2205 24.4587H22.1127C22.5073 24.4587 22.8745 24.229 22.9834 23.8498C23.1025 23.435 23.1666 22.9947 23.1666 22.5385C23.1666 20.8445 22.283 19.3701 20.9794 18.6087Z"/>
</svg>
