<svg width="32" height="32" viewBox="0 0 32 32" xmlns="http://www.w3.org/2000/svg">
<path fill-rule="evenodd" clip-rule="evenodd" d="M6.05388 22.0002H23.9461C25.0597 22.0002 26.3392 21.3354 26.739 19.9435C26.9094 19.3503 27 18.7242 27 18.0801C27 16.0371 26.0881 14.1787 24.6198 12.978C23.6582 9.03929 20.2594 6 16.0526 6C12.2967 6 9.18072 8.42749 7.8747 11.748C5.01666 12.3939 3 15.0705 3 18.0802C3 18.7242 3.09055 19.3503 3.26091 19.9435C3.66071 21.3354 4.94025 22.0002 6.05388 22.0002ZM16.0526 8C19.4702 8 22.3026 10.6661 22.8128 14.1503C24.1164 14.9117 25 16.3861 25 18.0801C25 18.5363 24.9359 18.9766 24.8168 19.3914C24.7078 19.7706 24.3407 20.0002 23.9461 20.0002H6.05388C5.65931 20.0002 5.29212 19.7706 5.1832 19.3913C5.06408 18.9766 5 18.5364 5 18.0802C5 15.6059 6.8851 13.6002 9.21049 13.6002C9.27154 13.6002 9.33229 13.6016 9.39271 13.6043C10.104 10.3914 12.8159 8 16.0526 8ZM10.8944 25.4472C11.1414 24.9532 10.9412 24.3525 10.4472 24.1055C9.95324 23.8586 9.35257 24.0588 9.10558 24.5528L7.10558 28.5528C6.85859 29.0467 7.05881 29.6474 7.55279 29.8944C8.04677 30.1414 8.64744 29.9412 8.89443 29.4472L10.8944 25.4472ZM15.4472 24.1055C15.9412 24.3525 16.1414 24.9532 15.8944 25.4472L13.8944 29.4472C13.6474 29.9412 13.0468 30.1414 12.5528 29.8944C12.0588 29.6474 11.8586 29.0467 12.1056 28.5528L14.1056 24.5528C14.3526 24.0588 14.9532 23.8586 15.4472 24.1055ZM20.8944 25.4472C21.1414 24.9532 20.9412 24.3525 20.4472 24.1055C19.9532 23.8586 19.3526 24.0588 19.1056 24.5528L17.1056 28.5528C16.8586 29.0467 17.0588 29.6474 17.5528 29.8944C18.0468 30.1414 18.6474 29.9412 18.8944 29.4472L20.8944 25.4472Z"/>
</svg>
