<svg width="32" height="32" viewBox="0 0 32 32" xmlns="http://www.w3.org/2000/svg">
<path fill-rule="evenodd" clip-rule="evenodd" d="M27.7597 3.42992C27.9971 2.93129 27.7854 2.33457 27.2867 2.09713C26.7881 1.85968 26.1914 2.07142 25.954 2.57006L22.4159 9.99999H27.4159L25.2397 14.5701C25.0022 15.0687 25.214 15.6654 25.7126 15.9029C26.2112 16.1403 26.8079 15.9286 27.0454 15.4299L30.5835 7.99999H25.5835L27.7597 3.42992ZM5.22014 25.4586H23.1124C24.226 25.4586 25.5055 24.7938 25.9053 23.4018C26.0757 22.8087 26.1663 22.1825 26.1663 21.5384C26.1663 19.4954 25.2544 17.637 23.786 16.4363C22.8244 12.4976 19.4256 9.45832 15.2189 9.45832C11.463 9.45832 8.34698 11.8858 7.04096 15.2063C4.18292 15.8522 2.16626 18.5288 2.16626 21.5385C2.16626 22.1826 2.25681 22.8086 2.42717 23.4018C2.82697 24.7937 4.10651 25.4586 5.22014 25.4586ZM15.2189 11.4583C18.6365 11.4583 21.4689 14.1245 21.979 17.6086C23.2826 18.3701 24.1663 19.8444 24.1663 21.5384C24.1663 21.9946 24.1022 22.4349 23.983 22.8497C23.8741 23.2289 23.5069 23.4586 23.1124 23.4586H5.22014C4.82557 23.4586 4.45838 23.2289 4.34945 22.8497C4.23034 22.435 4.16626 21.9947 4.16626 21.5385C4.16626 19.0643 6.05136 17.0585 8.37675 17.0585C8.4378 17.0585 8.49855 17.0599 8.55897 17.0626C9.2703 13.8497 11.9821 11.4583 15.2189 11.4583Z"/>
</svg>
