<svg width="16" height="16" viewBox="0 0 16 16" xmlns="http://www.w3.org/2000/svg">
<g clip-path="url(#clip0_4355_53948)">
<path fill-rule="evenodd" clip-rule="evenodd" d="M8 15C11.866 15 15 11.866 15 8C15 4.13401 11.866 1 8 1C4.13401 1 1 4.13401 1 8C1 11.866 4.13401 15 8 15ZM8 16C12.4183 16 16 12.4183 16 8C16 3.58172 12.4183 0 8 0C3.58172 0 0 3.58172 0 8C0 12.4183 3.58172 16 8 16Z"/>
<path d="M7.45378 9.45658C7.45378 9.1578 7.50233 8.89636 7.59944 8.67227C7.70402 8.44071 7.82726 8.2465 7.96919 8.08964C8.11858 7.93277 8.31279 7.74603 8.55182 7.52941C8.85061 7.26797 9.07096 7.04388 9.21289 6.85714C9.35481 6.66293 9.42577 6.43137 9.42577 6.16247C9.42577 5.79645 9.28385 5.50514 9 5.28852C8.71615 5.06443 8.324 4.95238 7.82353 4.95238C6.94958 4.95238 6.28105 5.24743 5.81793 5.83753L5 5.2549C5.31373 4.85154 5.71335 4.54155 6.19888 4.32493C6.69188 4.10831 7.25957 4 7.90196 4C8.71615 4 9.36228 4.17927 9.84034 4.53782C10.3184 4.88889 10.5574 5.37442 10.5574 5.9944C10.5574 6.30065 10.5051 6.5733 10.4006 6.81233C10.3035 7.04388 10.1839 7.2381 10.042 7.39496C9.90009 7.55182 9.70962 7.73856 9.47059 7.95518C9.16433 8.23156 8.93651 8.47432 8.78712 8.68347C8.64519 8.89262 8.57423 9.15033 8.57423 9.45658H7.45378ZM8.02521 12C7.81606 12 7.64052 11.9328 7.4986 11.7983C7.36415 11.6564 7.29692 11.4846 7.29692 11.2829C7.29692 11.0812 7.36415 10.9132 7.4986 10.7787C7.64052 10.6368 7.81606 10.5658 8.02521 10.5658C8.23436 10.5658 8.40616 10.6368 8.54062 10.7787C8.67507 10.9132 8.7423 11.0812 8.7423 11.2829C8.7423 11.4846 8.67134 11.6564 8.52941 11.7983C8.39496 11.9328 8.22689 12 8.02521 12Z"/>
</g>
<defs>
<clipPath id="clip0_4355_53948">
<rect width="16" height="16"/>
</clipPath>
</defs>
</svg>
