<svg width="16" height="16" viewBox="0 0 16 16" xmlns="http://www.w3.org/2000/svg">
<path fill-rule="evenodd" clip-rule="evenodd" d="M5 1C5.41421 1 5.75 1.33579 5.75 1.75V3.25H10.25V1.75C10.25 1.33579 10.5858 1 11 1C11.4142 1 11.75 1.33579 11.75 1.75V3.25H12.4181C13.844 3.25 14.9999 4.40589 14.9999 5.83177L15 11.6682C15 13.0941 13.8441 14.25 12.4182 14.25H3.58185C2.15596 14.25 1.00005 13.0941 1.00004 11.6682L1 5.83183C0.99999 4.40593 2.15591 3.25 3.58181 3.25H4.25V1.75C4.25 1.33579 4.58579 1 5 1ZM10.25 4.75V5.75C10.25 6.16421 10.5858 6.5 11 6.5C11.4142 6.5 11.75 6.16421 11.75 5.75V4.75H12.4181C13.0155 4.75 13.4999 5.23433 13.4999 5.83179L13.5 11.6682C13.5 12.2656 13.0156 12.75 12.4182 12.75H3.58185C2.98439 12.75 2.50005 12.2657 2.50004 11.6682L2.5 5.83182C2.5 5.23435 2.98434 4.75 3.58181 4.75H4.25V5.75C4.25 6.16421 4.58579 6.5 5 6.5C5.41421 6.5 5.75 6.16421 5.75 5.75V4.75H10.25Z"/>
</svg>
