<svg width="16" height="16" viewBox="0 0 16 16" xmlns="http://www.w3.org/2000/svg">
<path d="M3.39103 2.2387C3.07284 1.92051 2.55695 1.92051 2.23876 2.2387C1.92057 2.55689 1.92057 3.07278 2.23876 3.39097L6.848 8.0002L2.23917 12.609C1.92098 12.9272 1.92098 13.4431 2.23917 13.7613C2.55736 14.0795 3.07324 14.0795 3.39143 13.7613L8.00026 9.15247L12.6092 13.7614C12.9273 14.0795 13.4432 14.0795 13.7614 13.7614C14.0796 13.4432 14.0796 12.9273 13.7614 12.6091L9.15253 8.0002L13.7618 3.39091C14.08 3.07272 14.08 2.55683 13.7618 2.23864C13.4436 1.92045 12.9277 1.92045 12.6096 2.23864L8.00026 6.84794L3.39103 2.2387Z"/>
</svg>
