<svg width="16" height="16" viewBox="0 0 16 16" xmlns="http://www.w3.org/2000/svg">
<g clip-path="url(#clip0_7690_100254)">
<path fill-rule="evenodd" clip-rule="evenodd" d="M8 1.75C4.54822 1.75 1.75 4.54822 1.75 8C1.75 11.4518 4.54822 14.25 8 14.25C11.4518 14.25 14.25 11.4518 14.25 8C14.25 4.54822 11.4518 1.75 8 1.75ZM0.25 8C0.25 3.71979 3.71979 0.25 8 0.25C12.2802 0.25 15.75 3.71979 15.75 8C15.75 12.2802 12.2802 15.75 8 15.75C3.71979 15.75 0.25 12.2802 0.25 8ZM8 7C8.55228 7 9 7.44772 9 8V11C9 11.5523 8.55228 12 8 12C7.44772 12 7 11.5523 7 11V8C7 7.44772 7.44772 7 8 7ZM8 6C8.55229 6 9 5.55228 9 5C9 4.44772 8.55229 4 8 4C7.44772 4 7 4.44772 7 5C7 5.55228 7.44772 6 8 6Z"/>
</g>
<defs>
<clipPath id="clip0_7690_100254">
<rect width="16" height="16"/>
</clipPath>
</defs>
</svg>
