<svg width="16" height="16" viewBox="0 0 16 16" xmlns="http://www.w3.org/2000/svg">
<path fill-rule="evenodd" clip-rule="evenodd" d="M2.25 7.5C2.25 3.78301 5.25575 0.75 9 0.75H9.02342L9.04678 0.751461C9.41461 0.77445 9.8134 0.799829 10.2203 0.880769C11.1197 1.05114 11.4115 2.26366 10.5577 2.77593L10.5509 2.78004L10.544 2.78399C9.30197 3.49372 8.55469 4.79158 8.55469 6.21094C8.55469 8.69691 10.801 10.5639 13.2403 10.0918L13.2486 10.0902L13.2486 10.0902C14.1836 9.92023 14.8429 11.0028 14.2561 11.7573L14.251 11.7638L14.2458 11.7702C12.9787 13.3278 11.0776 14.25 9 14.25C5.25766 14.25 2.25 11.2423 2.25 7.5ZM8.75462 2.2556C5.95776 2.38363 3.75 4.68933 3.75 7.5C3.75 10.4139 6.08609 12.75 9 12.75C10.2044 12.75 11.3255 12.3556 12.2254 11.6599C9.39662 11.5283 7.05469 9.18497 7.05469 6.21094C7.05469 4.69394 7.67685 3.27306 8.75462 2.2556Z"/>
</svg>
