<svg width="16" height="16" viewBox="0 0 16 16" fill="none" xmlns="http://www.w3.org/2000/svg">
<path d="M7.51847 13.405C7.81547 13.2257 8.18732 13.2257 8.48431 13.405L11.8808 15.4549C12.5885 15.8821 13.4616 15.2475 13.2738 14.4425L12.3725 10.5788C12.2936 10.2409 12.4085 9.88722 12.6707 9.66007L15.6761 7.05648C16.3005 6.51558 15.9675 5.48998 15.1444 5.41901L11.1878 5.07782C10.8431 5.0481 10.543 4.83036 10.4078 4.51187L8.86166 0.869391C8.5394 0.110187 7.46338 0.110187 7.14112 0.86939L5.59499 4.51187C5.4598 4.83036 5.15972 5.0481 4.81501 5.07782L0.855566 5.41925C0.0329379 5.49018 -0.300293 6.51497 0.323288 7.05617L3.3242 9.66063C3.58563 9.88752 3.70023 10.2403 3.62204 10.5775L2.72512 14.4459C2.53854 15.2506 3.41121 15.8839 4.11845 15.4571L7.51847 13.405Z" fill="currentColor"/>
</svg>
