<svg width="16" height="16" viewBox="0 0 16 16" xmlns="http://www.w3.org/2000/svg">
<path d="M9.23944 8.15493C9.87793 7.83568 10.4695 7.67606 11.0141 7.67606C11.5587 7.67606 12.1502 7.83568 12.7887 8.15493C13.2394 8.38028 13.6432 8.49296 14 8.49296V9.67606C13.4554 9.67606 12.8638 9.51643 12.2254 9.19718C11.7371 8.95305 11.3333 8.83099 11.0141 8.83099C10.6761 8.83099 10.2629 8.95305 9.77465 9.19718C9.13615 9.51643 8.5446 9.67606 8 9.67606C7.4554 9.67606 6.86385 9.51643 6.22535 9.19718C5.73709 8.95305 5.32394 8.83099 4.98592 8.83099C4.66667 8.83099 4.26291 8.95305 3.77465 9.19718C3.13615 9.51643 2.5446 9.67606 2 9.67606V8.49296C2.35681 8.49296 2.76056 8.38028 3.21127 8.15493C3.84977 7.83568 4.44131 7.67606 4.98592 7.67606C5.53052 7.67606 6.12207 7.83568 6.76056 8.15493C7.21127 8.38028 7.62441 8.49296 8 8.49296C8.37559 8.49296 8.78873 8.38028 9.23944 8.15493ZM12.7887 5.47887C13.277 5.723 13.6808 5.84507 14 5.84507V7C13.4554 7 12.8638 6.84038 12.2254 6.52113C11.7371 6.277 11.3333 6.15493 11.0141 6.15493C10.6761 6.15493 10.2629 6.277 9.77465 6.52113C9.13615 6.84038 8.5446 7 8 7C7.4554 7 6.86385 6.84038 6.22535 6.52113C5.73709 6.277 5.32394 6.15493 4.98592 6.15493C4.66667 6.15493 4.26291 6.277 3.77465 6.52113C3.13615 6.84038 2.5446 7 2 7V5.84507C2.31925 5.84507 2.723 5.723 3.21127 5.47887C3.84977 5.15962 4.44131 5 4.98592 5C5.53052 5 6.12207 5.15962 6.76056 5.47887C7.24883 5.723 7.66197 5.84507 8 5.84507C8.33803 5.84507 8.75117 5.723 9.23944 5.47887C9.87793 5.15962 10.4695 5 11.0141 5C11.5587 5 12.1502 5.15962 12.7887 5.47887ZM9.23944 10.831C9.87793 10.5117 10.4695 10.3521 11.0141 10.3521C11.5587 10.3521 12.1502 10.5117 12.7887 10.831C13.2394 11.0563 13.6432 11.169 14 11.169V12.3521C13.4554 12.3521 12.8638 12.1925 12.2254 11.8732C11.7371 11.6291 11.3333 11.507 11.0141 11.507C10.6761 11.507 10.2629 11.6291 9.77465 11.8732C9.13615 12.1925 8.5446 12.3521 8 12.3521C7.4554 12.3521 6.86385 12.1925 6.22535 11.8732C5.73709 11.6291 5.32394 11.507 4.98592 11.507C4.66667 11.507 4.26291 11.6291 3.77465 11.8732C3.13615 12.1925 2.5446 12.3521 2 12.3521V11.169C2.35681 11.169 2.76056 11.0563 3.21127 10.831C3.84977 10.5117 4.44131 10.3521 4.98592 10.3521C5.53052 10.3521 6.12207 10.5117 6.76056 10.831C7.21127 11.0563 7.62441 11.169 8 11.169C8.37559 11.169 8.78873 11.0563 9.23944 10.831Z" fill-opacity="0.6"/>
</svg>
