<svg width="16" height="16" viewBox="0 0 16 16" xmlns="http://www.w3.org/2000/svg">
<path fill-rule="evenodd" clip-rule="evenodd" d="M8.00044 2C8.36864 2 8.66712 2.29848 8.66712 2.66668V4.44447C8.66712 4.81266 8.36864 5.11115 8.00044 5.11115C7.63225 5.11115 7.33376 4.81266 7.33376 4.44447V2.66668C7.33376 2.29848 7.63225 2 8.00044 2ZM12.2424 3.75734C12.5027 4.01769 12.5027 4.43981 12.2424 4.70017L11.0075 5.9351C11.006 5.93659 11.0045 5.93808 11.003 5.93956L8.94253 8.00006L12.2424 11.2999C12.5027 11.5603 12.5027 11.9824 12.2424 12.2427C11.982 12.5031 11.5599 12.5031 11.2996 12.2427L7.9997 8.94289L4.69997 12.2426C4.43961 12.503 4.01749 12.503 3.75714 12.2426C3.49678 11.9823 3.49678 11.5602 3.75714 11.2998L7.05688 8.00006L5.02782 5.971C5.02312 5.96657 5.01848 5.96205 5.01388 5.95746L3.7568 4.70037C3.49644 4.44002 3.49644 4.0179 3.7568 3.75754C4.01715 3.49719 4.43927 3.49719 4.69962 3.75754L5.44053 4.49845C5.44523 4.50289 5.44988 4.5074 5.45447 4.512L7.9997 7.05723L10.038 5.01891C10.0395 5.01741 10.041 5.01591 10.0425 5.01442L11.2996 3.75734C11.5599 3.49698 11.982 3.49698 12.2424 3.75734ZM2 8.00004C2 7.63184 2.29848 7.33336 2.66668 7.33336H4.44447C4.81266 7.33336 5.11115 7.63184 5.11115 8.00004C5.11115 8.36824 4.81266 8.66672 4.44447 8.66672H2.66668C2.29848 8.66672 2 8.36824 2 8.00004ZM10.889 8.00004C10.889 7.63184 11.1875 7.33336 11.5557 7.33336H13.3335C13.7017 7.33336 14.0002 7.63184 14.0002 8.00004C14.0002 8.36824 13.7017 8.66672 13.3335 8.66672H11.5557C11.1875 8.66672 10.889 8.36824 10.889 8.00004ZM8.00012 10.8889C8.36832 10.8889 8.6668 11.1873 8.6668 11.5555V13.3333C8.6668 13.7015 8.36832 14 8.00012 14C7.63193 14 7.33344 13.7015 7.33344 13.3333V11.5555C7.33344 11.1873 7.63193 10.8889 8.00012 10.8889Z" fill-opacity="0.6"/>
</svg>
