<?xml version="1.0" encoding="utf-8"?><!-- Uploaded to: SVG Repo, www.svgrepo.com, Generator: SVG Repo Mixer Tools -->
<svg fill="currentColor" viewBox="0 0 24 24" xmlns="http://www.w3.org/2000/svg">
  <path fill-rule="evenodd" d="M17,2 C17.5522847,2 18,2.44771525 18,3 L18,4 L19,4 C20.6568542,4 22,5.34314575 22,7 L22,9 C22,9.55228475 21.5522847,10 21,10 C20.4477153,10 20,9.55228475 20,9 L20,7 C20,6.44771525 19.5522847,6 19,6 L18,6 L18,7 C18,7.55228475 17.5522847,8 17,8 C16.4477153,8 16,7.55228475 16,7 L16,6 L8,6 L8,7 C8,7.55228475 7.55228475,8 7,8 C6.44771525,8 6,7.55228475 6,7 L6,6 L5,6 C4.44771525,6 4,6.44771525 4,7 L4,10 L9,10 C9.55228475,10 10,10.4477153 10,11 C10,11.5522847 9.55228475,12 9,12 L4,12 L4,19 C4,19.5522847 4.44771525,20 5,20 L9,20 C9.55228475,20 10,20.4477153 10,21 C10,21.5522847 9.55228475,22 9,22 L5,22 C3.34314575,22 2,20.6568542 2,19 L2,7 C2,5.34314575 3.34314575,4 5,4 L6,4 L6,3 C6,2.44771525 6.44771525,2 7,2 C7.55228475,2 8,2.44771525 8,3 L8,4 L16,4 L16,3 C16,2.44771525 16.4477153,2 17,2 Z M18.6128994,12.2097046 L18.7071068,12.2928932 L21.7071068,15.2928932 C22.0675907,15.6533772 22.0953203,16.2206082 21.7902954,16.6128994 L21.7071068,16.7071068 L16.7071068,21.7071068 C16.5508265,21.8633871 16.3481451,21.9625983 16.131444,21.9913276 L16,22 L13,22 C12.4871642,22 12.0644928,21.6139598 12.0067277,21.1166211 L12,21 L12,18 C12,17.7789863 12.0731645,17.565516 12.2060806,17.3919705 L12.2928932,17.2928932 L17.2928932,12.2928932 C17.6533772,11.9324093 18.2206082,11.9046797 18.6128994,12.2097046 Z M18,14.4142136 L14,18.4142136 L14,20 L15.5857864,20 L19.5857864,16 L18,14.4142136 Z"/>
</svg>