<svg width="32" height="32" viewBox="0 0 32 32" xmlns="http://www.w3.org/2000/svg">
<path fill-rule="evenodd" clip-rule="evenodd" d="M16 4.74048L16.8967 6.55746L19.3091 11.4454L24.7033 12.2293L26.7084 12.5206L25.2575 13.935L21.3542 17.7397L22.2757 23.1121L22.6182 25.1092L20.8247 24.1663L16 21.6298L11.1752 24.1663L9.38178 25.1092L9.7243 23.1121L10.6457 17.7397L6.74245 13.935L5.2915 12.5206L7.29667 12.2293L12.6909 11.4454L15.1032 6.55746L16 4.74048ZM16 9.25958L14.2517 12.802L14.019 13.2735L13.4987 13.3491L9.58943 13.9171L12.4182 16.6745L12.7947 17.0415L12.7058 17.5597L12.038 21.4532L15.5346 19.6149L16 19.3703L16.4653 19.6149L19.9619 21.4532L19.2941 17.5597L19.2052 17.0415L19.5817 16.6745L22.4105 13.9171L18.5012 13.3491L17.9809 13.2735L17.7483 12.802L16 9.25958Z"/>
</svg>
