<svg width="32" height="32" viewBox="0 0 32 32" xmlns="http://www.w3.org/2000/svg">
<path fill-rule="evenodd" clip-rule="evenodd" d="M18.0706 5.28262C17.2577 3.6037 14.8016 3.54434 13.9336 5.27426L13.9336 5.27424L13.9296 5.28239L11.4882 10.2603L5.9639 11.0467L5.9639 11.0466L5.9533 11.0483C4.03256 11.3427 3.36592 13.6711 4.69952 15.0001L4.69949 15.0001L4.70637 15.0068L8.65053 18.8623L7.71156 24.2892L7.71002 24.2981L7.70863 24.3071C7.41913 26.1823 9.41873 27.6109 11.092 26.7409L11.0954 26.7391L16.0188 24.155L20.9018 26.7376L20.9018 26.7377L20.908 26.7409C22.5813 27.6109 24.5809 26.1823 24.2914 24.3071L24.29 24.2981L24.2885 24.2892L23.3495 18.8623L27.2937 15.0068L27.2937 15.0068L27.3005 15.0001C28.6341 13.6711 27.9675 11.3427 26.0467 11.0483L26.0467 11.0482L26.0371 11.0468L20.5494 10.2603L18.0706 5.28262ZM15.7226 6.16835L13.0509 11.616L12.8179 12.0912L12.294 12.1657L6.25303 13.0257C6.03682 13.0616 5.88366 13.3533 6.10877 13.5809L10.4245 17.7996L10.8005 18.1671L10.7109 18.6852L9.68434 24.6182C9.6688 24.7327 9.71458 24.8455 9.83018 24.9284C9.94867 25.0134 10.0706 25.0173 10.1683 24.967C10.1687 24.9668 10.169 24.9666 10.1694 24.9664L15.5558 22.1392L16.0224 21.8944L16.4881 22.1407L21.8306 24.9664C21.8313 24.9668 21.832 24.9671 21.8327 24.9675C21.9302 25.0172 22.0517 25.0132 22.1698 24.9284C22.2855 24.8455 22.3312 24.7327 22.3157 24.6182L21.2891 18.6852L21.1995 18.1671L21.5755 17.7996L25.8912 13.5809C26.1165 13.3532 25.9631 13.0613 25.7467 13.0256L19.7463 12.1656L19.2269 12.0912L18.993 11.6215L16.2775 6.1685L16.2742 6.16198L16.2711 6.15542C16.2283 6.06619 16.1373 6.0015 16.0045 6.00005C15.881 5.99869 15.7816 6.05316 15.7226 6.16835Z"/>
</svg>
