<svg width="32" height="32" viewBox="0 0 32 32" xmlns="http://www.w3.org/2000/svg">
<path fill-rule="evenodd" clip-rule="evenodd" d="M16.0001 0.740479L16.8968 2.55746L18.4275 5.65897L21.8502 6.15632L23.8554 6.44769L22.4044 7.86201L19.9277 10.2762L20.5124 13.6851L20.8549 15.6821L19.0614 14.7393L16.0001 13.1298L12.9387 14.7393L11.1452 15.6821L11.4878 13.6851L12.0724 10.2762L9.59573 7.86201L8.14478 6.44769L10.1499 6.15632L13.5727 5.65897L15.1033 2.55746L16.0001 0.740479ZM16.0001 5.25958L15.1335 7.01554L14.9008 7.48699L14.3805 7.56259L12.4427 7.84417L13.8449 9.21099L14.2214 9.57796L14.1325 10.0961L13.8015 12.0261L15.5347 11.1149L16.0001 10.8703L16.4654 11.1149L18.1987 12.0261L17.8676 10.0961L17.7788 9.57796L18.1552 9.21099L19.5575 7.84417L17.6196 7.56259L17.0994 7.48699L16.8667 7.01554L16.0001 5.25958ZM24.0001 13.7405L24.8968 15.5575L26.4275 18.659L29.8502 19.1563L31.8554 19.4477L30.4044 20.862L27.9277 23.2762L28.5124 26.6851L28.8549 28.6821L27.0614 27.7393L24.0001 26.1298L20.9387 27.7393L19.1452 28.6821L19.4878 26.6851L20.0724 23.2762L17.5957 20.862L16.1448 19.4477L18.1499 19.1563L21.5727 18.659L23.1033 15.5575L24.0001 13.7405ZM24.0001 18.2596L23.1335 20.0155L22.9008 20.487L22.3805 20.5626L20.4427 20.8442L21.8449 22.211L22.2214 22.578L22.1325 23.0961L21.8015 25.0261L23.5347 24.1149L24.0001 23.8703L24.4654 24.1149L26.1987 25.0261L25.8676 23.0961L25.7788 22.578L26.1552 22.211L27.5575 20.8442L25.6196 20.5626L25.0994 20.487L24.8667 20.0155L24.0001 18.2596ZM8.89681 15.5575L8.00008 13.7405L7.10334 15.5575L5.57265 18.659L2.14994 19.1563L0.144775 19.4477L1.59572 20.862L4.07243 23.2762L3.48776 26.6851L3.14523 28.6821L4.9387 27.7393L8.00008 26.1298L11.0614 27.7393L12.8549 28.6821L12.5124 26.6851L11.9277 23.2762L14.4044 20.862L15.8554 19.4477L13.8502 19.1563L10.4275 18.659L8.89681 15.5575ZM7.13346 20.0155L8.00008 18.2596L8.86669 20.0155L9.09937 20.487L9.61963 20.5626L11.5575 20.8442L10.1552 22.211L9.77876 22.578L9.86764 23.0961L10.1987 25.0261L8.46542 24.1149L8.00008 23.8703L7.53473 24.1149L5.80149 25.0261L6.13251 23.0961L6.22139 22.578L5.84492 22.211L4.4427 20.8442L6.38052 20.5626L6.90078 20.487L7.13346 20.0155Z"/>
</svg>
