<svg width="32" height="32" viewBox="0 0 32 32" xmlns="http://www.w3.org/2000/svg">
<path fill-rule="evenodd" clip-rule="evenodd" d="M16 5.74048L16.8968 7.55746L19.0152 11.85L23.7523 12.5383L25.7574 12.8297L24.3065 14.244L20.8787 17.5852L21.6879 22.3031L22.0304 24.3002L20.237 23.3573L16 21.1298L11.7631 23.3573L9.96961 24.3002L10.3121 22.3031L11.1213 17.5852L7.69356 14.244L6.24261 12.8297L8.24778 12.5383L12.9848 11.85L15.1033 7.55746L16 5.74048ZM16 10.2596L14.5456 13.2065L14.313 13.678L13.7927 13.7536L10.5405 14.2261L12.8938 16.52L13.2703 16.887L13.1814 17.4051L12.6259 20.6441L15.5347 19.1149L16 18.8703L16.4654 19.1149L19.3742 20.6441L18.8186 17.4051L18.7298 16.887L19.1062 16.52L21.4595 14.2261L18.2074 13.7536L17.6871 13.678L17.4544 13.2065L16 10.2596ZM28 16L29.1756 18.382L31.8043 18.764L29.9021 20.6181L30.3512 23.2361L28 22L25.6489 23.2361L26.0979 20.6181L24.1958 18.764L26.8245 18.382L28 16ZM5.1756 18.382L4.00003 16L2.82446 18.382L0.195801 18.764L2.09791 20.6181L1.64889 23.2361L4.00003 22L6.35117 23.2361L5.90214 20.6181L7.80425 18.764L5.1756 18.382Z"/>
</svg>
