<svg width="32" height="32" viewBox="0 0 32 32" xmlns="http://www.w3.org/2000/svg">
<path fill-rule="evenodd" clip-rule="evenodd" d="M8.89681 9.55746L8.00008 7.74048L7.10334 9.55746L5.57265 12.659L2.14994 13.1563L0.144775 13.4477L1.59572 14.862L4.07243 17.2762L3.48776 20.6851L3.14523 22.6821L4.9387 21.7393L8.00008 20.1298L11.0614 21.7393L12.8549 22.6821L12.5124 20.6851L11.9277 17.2762L14.4044 14.862L15.8554 13.4477L13.8502 13.1563L10.4275 12.659L8.89681 9.55746ZM7.13346 14.0155L8.00008 12.2596L8.86669 14.0155L9.09937 14.487L9.61963 14.5626L11.5575 14.8442L10.1552 16.211L9.77876 16.578L9.86764 17.0961L10.1987 19.0261L8.46542 18.1149L8.00008 17.8703L7.53473 18.1149L5.80149 19.0261L6.13251 17.0961L6.22139 16.578L5.84492 16.211L4.4427 14.8442L6.38052 14.5626L6.90078 14.487L7.13346 14.0155ZM24.8968 9.55746L24.0001 7.74048L23.1033 9.55746L21.5727 12.659L18.1499 13.1563L16.1448 13.4477L17.5957 14.862L20.0724 17.2762L19.4878 20.6851L19.1452 22.6821L20.9387 21.7393L24.0001 20.1298L27.0614 21.7393L28.8549 22.6821L28.5124 20.6851L27.9277 17.2762L30.4044 14.862L31.8554 13.4477L29.8502 13.1563L26.4275 12.659L24.8968 9.55746ZM23.1335 14.0155L24.0001 12.2596L24.8667 14.0155L25.0994 14.487L25.6196 14.5626L27.5575 14.8442L26.1552 16.211L25.7788 16.578L25.8676 17.0961L26.1987 19.0261L24.4654 18.1149L24.0001 17.8703L23.5347 18.1149L21.8015 19.0261L22.1325 17.0961L22.2214 16.578L21.8449 16.211L20.4427 14.8442L22.3805 14.5626L22.9008 14.487L23.1335 14.0155Z"/>
</svg>
