<svg width="32" height="32" viewBox="0 0 32 32" xmlns="http://www.w3.org/2000/svg">
<path fill-rule="evenodd" clip-rule="evenodd" d="M8.7903 8.3871L8.70711 8.29289C8.34662 7.93241 7.77939 7.90468 7.3871 8.2097L7.29289 8.29289L0.292893 15.2929L0.251496 15.3369L0.196335 15.4047L0.124671 15.5159L0.0712255 15.6287L0.0358451 15.734L0.00690716 15.8819L0 16L0.00278786 16.0752L0.0202401 16.2007L0.0497381 16.3121L0.0936734 16.4232L0.145995 16.5207L0.219689 16.6254L0.292893 16.7071L7.29289 23.7071C7.68342 24.0976 8.31658 24.0976 8.70711 23.7071C9.06759 23.3466 9.09532 22.7794 8.7903 22.3871L8.70711 22.2929L3.416 17H19C19.5523 17 20 16.5523 20 16C20 15.4477 19.5523 15 19 15H3.414L8.70711 9.70711C9.06759 9.34662 9.09532 8.77939 8.7903 8.3871L8.70711 8.29289L8.7903 8.3871Z"/>
</svg>
