<svg width="32" height="32" viewBox="0 0 32 32" xmlns="http://www.w3.org/2000/svg">
<path d="M30 26.5614C30 28.0802 28.7146 29.2871 27.1962 29.2871H21.5492H2V20.4865V18.111L9.04852 2H9.47688L20.1866 23.6408C20.7707 24.7701 21.043 25.0041 22.0944 25.0041H22.9901L22.6399 26.2502H21.9776C20.4589 26.2502 19.8358 25.9776 18.9401 24.2645L9.3 4L4.37578 15.9695L6.94565 14.8791L9.67159 16.6705L12.6705 16.0081L17.7326 25.9387C18.4728 27.3795 19.4071 28.0415 21.5882 28.0415H21.9773H27.1955C28.0523 28.0415 28.7143 27.3795 28.7143 26.5617C28.7143 25.744 28.0523 25.0819 27.1955 25.0819C26.3778 25.0819 25.7157 25.744 25.7157 26.5617H24.4693C24.4693 25.043 25.6765 23.7969 27.1952 23.7969H27.2342C27.0394 23.2127 26.4943 22.7454 25.8322 22.7454C25.0145 22.7454 24.3521 23.4078 24.3521 24.1866H23.067C23.067 22.7065 24.3135 21.4606 25.8319 21.4606C27.3117 21.4606 28.48 22.4731 28.5186 24.1477C29.3766 24.6143 30 25.51 30 26.5614ZM22.601 22.5114H22.7954L23.1848 21.265H22.6783C22.367 21.265 22.2499 21.226 22.0941 20.9148L19.9134 16.5533L18.0831 14.762H17.5382L20.8872 21.46C21.3935 22.3946 21.6271 22.5114 22.601 22.5114Z"/>
</svg>
