<svg width="32" height="32" viewBox="0 0 32 32" xmlns="http://www.w3.org/2000/svg">
<path fill-rule="evenodd" clip-rule="evenodd" d="M13.5519 6.10685C14.0125 6.41164 14.1388 7.03208 13.834 7.49265L10.8608 11.9855H22.1393L19.1661 7.49265C18.8613 7.03208 18.9876 6.41164 19.4482 6.10685C19.9087 5.80206 20.5292 5.92835 20.834 6.38892L24.5376 11.9855H26.4652C27.9102 11.9855 28.8783 13.4707 28.2951 14.7927L23.8441 24.8816C23.5243 25.6066 22.8066 26.0743 22.0142 26.0743H10.6512C9.85885 26.0743 9.1412 25.6066 8.82137 24.8816L4.3704 14.7927C3.78715 13.4707 4.75527 11.9855 6.20023 11.9855H8.46252L12.1661 6.38892C12.4709 5.92835 13.0913 5.80206 13.5519 6.10685ZM26.4652 13.9855H6.20023L10.6512 24.0743L22.0142 24.0743L26.4652 13.9855L27.3801 14.3891L26.4652 13.9855Z"/>
</svg>
