<svg width="32" height="32" viewBox="0 0 32 32" xmlns="http://www.w3.org/2000/svg">
<path fill-rule="evenodd" clip-rule="evenodd" d="M10 5.5C10.5523 5.5 11 5.94772 11 6.5V9H21V6.5C21 5.94772 21.4477 5.5 22 5.5C22.5523 5.5 23 5.94772 23 6.5V9H24.9998C26.1044 9 26.9998 9.89541 26.9998 11L27 24C27 25.1046 26.1046 26 25 26H7.00009C5.89552 26 5.0001 25.1046 5.00009 24L5 11C4.99999 9.89544 5.89542 9 7 9H9V6.5C9 5.94772 9.44772 5.5 10 5.5ZM21 11V12C21 12.5523 21.4477 13 22 13C22.5523 13 23 12.5523 23 12V11H24.9998L25 24H7.00009L7 11H9V12C9 12.5523 9.44772 13 10 13C10.5523 13 11 12.5523 11 12V11H21Z"/>
</svg>
