<svg width="32" height="32" viewBox="0 0 32 32" xmlns="http://www.w3.org/2000/svg">
<path fill-rule="evenodd" clip-rule="evenodd" d="M12 7C12.5523 7 13 7.44772 13 8V10H19V8C19 7.44772 19.4477 7 20 7C20.5523 7 21 7.44772 21 8V10H22.9998C24.1044 10 24.9998 10.8954 24.9998 12L25 22C25 23.1046 24.1046 24 23 24H9.00007C7.8955 24 7.00008 23.1046 7.00007 22L7 12C6.99999 10.8954 7.89542 10 9 10H11V8C11 7.44772 11.4477 7 12 7ZM19 12V13C19 13.5523 19.4477 14 20 14C20.5523 14 21 13.5523 21 13V12H22.9998L23 22H9.00007L9 12H11V13C11 13.5523 11.4477 14 12 14C12.5523 14 13 13.5523 13 13V12H19Z"/>
</svg>
