<svg width="32" height="32" viewBox="0 0 32 32" xmlns="http://www.w3.org/2000/svg">
<path fill-rule="evenodd" clip-rule="evenodd" d="M25 13C25 17.9706 20.9706 22 16 22C11.0294 22 7 17.9706 7 13C7 8.02944 11.0294 4 16 4C20.9706 4 25 8.02944 25 13ZM20.3552 23.1042C24.2641 21.417 27 17.528 27 13C27 6.92487 22.0751 2 16 2C9.92487 2 5 6.92487 5 13C5 17.528 7.73591 21.4171 11.6448 23.1042C10.3124 23.6888 9.07454 24.555 8.02247 25.7027C6.86559 26.9648 7.76087 29 9.47293 29H22.5271C24.2391 29 25.1344 26.9648 23.9775 25.7027C22.9255 24.555 21.6876 23.6888 20.3552 23.1042ZM9.54688 27C13.0337 23.2579 18.9663 23.2579 22.4531 27H9.54688ZM16 17C18.2091 17 20 15.2091 20 13C20 10.7909 18.2091 9 16 9C13.7909 9 12 10.7909 12 13C12 15.2091 13.7909 17 16 17ZM16 19C19.3137 19 22 16.3137 22 13C22 9.68629 19.3137 7 16 7C12.6863 7 10 9.68629 10 13C10 16.3137 12.6863 19 16 19ZM16 15C17.1046 15 18 14.1046 18 13C18 11.8954 17.1046 11 16 11C14.8954 11 14 11.8954 14 13C14 14.1046 14.8954 15 16 15Z"/>
</svg>
