<svg width="32" height="32" viewBox="0 0 32 32" xmlns="http://www.w3.org/2000/svg">
<path fill-rule="evenodd" clip-rule="evenodd" d="M6.29351 3.76714C6.42216 3.28702 6.91566 3.0021 7.39578 3.13074L28.6461 8.82476C28.9474 8.90549 29.1854 9.13647 29.2752 9.43521C29.3649 9.73394 29.2935 10.0578 29.0866 10.2912L27.8273 11.7113L28.8356 11.9815C29.3157 12.1101 29.6007 12.6036 29.472 13.0838L27.9191 18.8793C27.8547 19.1195 27.6938 19.3224 27.4746 19.4398C27.2553 19.5572 26.9972 19.5786 26.7616 19.499L23.8734 18.523L23.5377 19.7758C23.4091 20.2559 22.9156 20.5408 22.4355 20.4122L15.3036 18.5012L14.4627 22.2852C14.3886 22.6187 14.1493 22.8913 13.8282 23.0081L8.98645 24.7687V28.0682C8.98645 28.6205 8.53873 29.0682 7.98645 29.0682H4.98645C4.43417 29.0682 3.98645 28.6205 3.98645 28.0682V19.0682C3.98645 18.5159 4.43417 18.0682 4.98645 18.0682H7.98645C8.53873 18.0682 8.98645 18.5159 8.98645 19.0682V22.6406L12.6293 21.3159L13.3699 17.9831L6.01472 16.0123C5.5346 15.8836 5.24967 15.3901 5.37832 14.91L6.43949 10.9497L5.37699 10.665C4.89687 10.5363 4.61195 10.0428 4.74059 9.56269L6.29351 3.76714ZM24.3402 16.7808L26.4288 17.4865L27.5004 13.4872L26.4921 13.217L24.7768 15.1514L24.3402 16.7808ZM7.79924 5.10235L6.7122 9.15924L23.6582 13.6999L26.7737 10.1865L7.79924 5.10235ZM8.17814 11.4156L7.34992 14.5065L22.032 18.4406L22.8602 15.3496L8.17814 11.4156ZM5.98645 27.0682V20.0682H6.98645V27.0682H5.98645Z"/>
</svg>
