<svg width="32" height="32" viewBox="0 0 32 32" xmlns="http://www.w3.org/2000/svg">
<path fill-rule="evenodd" clip-rule="evenodd" d="M13.7071 7.29289C13.3166 6.90237 12.6834 6.90237 12.2929 7.29289C11.9024 7.68342 11.9024 8.31658 12.2929 8.70711L19.5254 15.9396L12.2929 23.1721C11.9024 23.5626 11.9024 24.1958 12.2929 24.5863C12.6834 24.9768 13.3166 24.9768 13.7071 24.5863L21.6307 16.6627C21.6362 16.6575 21.6415 16.6522 21.6469 16.6469C21.843 16.4508 21.9406 16.1936 21.9398 15.9366C21.9391 15.6816 21.8414 15.4269 21.6469 15.2323C21.6416 15.227 21.6362 15.2217 21.6307 15.2165L13.7071 7.29289Z"/>
</svg>
