<svg width="32" height="32" viewBox="0 0 32 32" xmlns="http://www.w3.org/2000/svg">
<path fill-rule="evenodd" clip-rule="evenodd" d="M18.2929 7.29289C18.6834 6.90237 19.3166 6.90237 19.7071 7.29289C20.0976 7.68342 20.0976 8.31658 19.7071 8.70711L12.4746 15.9396L19.7071 23.1721C20.0976 23.5626 20.0976 24.1958 19.7071 24.5863C19.3166 24.9768 18.6834 24.9768 18.2929 24.5863L10.3693 16.6627C10.3638 16.6575 10.3585 16.6522 10.3531 16.6469C10.157 16.4508 10.0594 16.1936 10.0602 15.9366C10.0609 15.6816 10.1586 15.4269 10.3531 15.2323C10.3584 15.227 10.3638 15.2217 10.3693 15.2165L18.2929 7.29289Z"/>
</svg>
