<svg width="32" height="32" viewBox="0 0 32 32" xmlns="http://www.w3.org/2000/svg">
<path fill-rule="evenodd" clip-rule="evenodd" d="M16 26C21.5228 26 26 21.5228 26 16C26 10.4772 21.5228 6 16 6C10.4772 6 6 10.4772 6 16C6 21.5228 10.4772 26 16 26ZM16 28C22.6274 28 28 22.6274 28 16C28 9.37258 22.6274 4 16 4C9.37258 4 4 9.37258 4 16C4 22.6274 9.37258 28 16 28ZM16 8.5C16.5523 8.5 17 8.94772 17 9.5V15.5194L21.6247 19.2191C22.056 19.5641 22.1259 20.1934 21.7809 20.6247C21.4359 21.056 20.8066 21.1259 20.3753 20.7809L15.3826 16.7867C15.3692 16.7762 15.3561 16.7653 15.3433 16.7542C15.2377 16.6623 15.1558 16.5527 15.0985 16.4333C15.041 16.314 15.0066 16.1815 15.0009 16.0417M15 15.9908V9.5C15 8.94772 15.4477 8.5 16 8.5"/>
</svg>
