<svg width="32" height="32" viewBox="0 0 32 32" xmlns="http://www.w3.org/2000/svg">
<path d="M8.92616 7.51488C8.53564 7.12436 7.90247 7.12436 7.51195 7.51488C7.12143 7.9054 7.12143 8.53857 7.51195 8.92909L14.5827 15.9999L7.51164 23.0709C7.12112 23.4614 7.12112 24.0946 7.51164 24.4851C7.90217 24.8757 8.53533 24.8757 8.92586 24.4851L15.9969 17.4141L23.0683 24.4854C23.4588 24.876 24.092 24.876 24.4825 24.4854C24.873 24.0949 24.873 23.4618 24.4825 23.0712L17.4111 15.9999L24.4822 8.92879C24.8727 8.53826 24.8727 7.9051 24.4822 7.51457C24.0917 7.12405 23.4585 7.12405 23.068 7.51457L15.9969 14.5856L8.92616 7.51488Z"/>
</svg>
