<svg width="32" height="32" viewBox="0 0 32 32" xmlns="http://www.w3.org/2000/svg">
<path d="M10.7071 9.29289C10.3166 8.90237 9.68342 8.90237 9.29289 9.29289C8.90237 9.68342 8.90237 10.3166 9.29289 10.7071L14.9497 16.364L9.29289 22.0208C8.90237 22.4113 8.90237 23.0445 9.29289 23.435C9.68342 23.8256 10.3166 23.8256 10.7071 23.435L16.364 17.7782L22.0208 23.435C22.4113 23.8256 23.0445 23.8256 23.435 23.435C23.8256 23.0445 23.8256 22.4113 23.435 22.0208L17.7782 16.364L23.435 10.7071C23.8256 10.3166 23.8256 9.68342 23.435 9.29289C23.0445 8.90237 22.4113 8.90237 22.0208 9.29289L16.364 14.9497L10.7071 9.29289Z"/>
</svg>
