<svg width="32" height="32" viewBox="0 0 32 32" xmlns="http://www.w3.org/2000/svg">
<path fill-rule="evenodd" clip-rule="evenodd" d="M15.1438 5.29897C15.6857 5.04227 16.3142 5.04227 16.8561 5.29897L25.4234 9.35716C26.5923 9.91085 26.5594 11.5854 25.3696 12.0926L16.7843 15.7526C16.2832 15.9663 15.7167 15.9663 15.2156 15.7526L6.63039 12.0926C5.44058 11.5854 5.4076 9.91085 6.57651 9.35716L15.1438 5.29897ZM8.4373 10.6888L16 13.9128L23.5626 10.6888L16 7.10645L8.4373 10.6888ZM6.08616 15.5938C6.31046 15.0891 6.90143 14.8618 7.40611 15.0861L16 18.9056L24.5938 15.0861C25.0985 14.8618 25.6895 15.0891 25.9138 15.5938C26.1381 16.0985 25.9108 16.6894 25.4061 16.9137L16.8122 20.7332C16.2951 20.9631 15.7048 20.9631 15.1877 20.7332L6.59383 16.9137C6.08915 16.6894 5.86186 16.0985 6.08616 15.5938ZM7.40611 20.0861C6.90143 19.8618 6.31046 20.0891 6.08616 20.5938C5.86186 21.0985 6.08915 21.6894 6.59383 21.9137L15.1877 25.7332C15.7048 25.9631 16.2951 25.9631 16.8122 25.7332L25.4061 21.9137C25.9108 21.6894 26.1381 21.0985 25.9138 20.5938C25.6895 20.0891 25.0985 19.8618 24.5938 20.0861L16 23.9056L7.40611 20.0861Z"/>
</svg>
