<svg width="32" height="32" viewBox="0 0 32 32" xmlns="http://www.w3.org/2000/svg">
<mask id="path-1-inside-1_4355_53914">
<path fill-rule="evenodd" clip-rule="evenodd" d="M9.67206 4.3522C10.2138 4.45936 10.5662 4.98544 10.459 5.52723C10.2807 6.42858 10.2471 7.58671 10.6439 8.51637C11.0002 9.35087 11.7541 10.1357 13.5172 10.3129C14.8537 10.4473 16.1357 9.89502 17.1772 9.05647C18.2424 8.19872 18.8872 7.1785 19.0337 6.63988C19.1787 6.10695 19.7282 5.79243 20.2611 5.93737C20.794 6.08231 21.1086 6.63183 20.9636 7.16475C20.6724 8.23548 19.7072 9.58704 18.4315 10.6142C17.7379 11.1727 16.9046 11.6741 15.9705 11.9892C15.9899 12.101 16 12.216 16 12.3334C15.9998 14.2177 16.5523 15.36 17.1115 16.2282C17.2252 16.3478 17.3415 16.4681 17.4608 16.5916L17.4609 16.5917L17.5451 16.6789C17.8219 16.9655 18.1136 17.2701 18.3913 17.5919C18.9499 18.2392 19.4856 18.9935 19.8146 19.9474C20.486 21.8934 20.1954 24.3453 18.3944 27.9472C18.1474 28.4412 17.5468 28.6414 17.0528 28.3944C16.5588 28.1474 16.3586 27.5468 16.6056 27.0528C18.3046 23.6547 18.3397 21.8047 17.924 20.5997C17.7371 20.0578 17.4387 19.583 17.0531 19.1084C16.9745 19.1838 16.8887 19.2538 16.7958 19.3173C16.6061 19.4471 16.402 19.5397 16.192 19.5969C16.337 20.902 15.9337 22.046 15.0734 22.89C13.8674 24.0733 11.9772 24.4428 10.2186 24.0415C9.68012 23.9186 9.34323 23.3825 9.46609 22.8441C9.58895 22.3057 10.125 21.9688 10.6635 22.0916C11.9227 22.3789 13.0622 22.0614 13.6727 21.4624C14.2029 20.9423 14.5419 19.9978 13.7704 18.4448C13.7605 18.425 13.7514 18.4049 13.743 18.3848C12.9214 17.1051 11.9997 15.2238 12 12.333C12 12.2398 12.0064 12.148 12.0187 12.0582C10.3616 11.5795 9.33835 10.5521 8.80452 9.30158C8.18375 7.84739 8.2814 6.22939 8.49703 5.13917C8.60419 4.59738 9.13027 4.24504 9.67206 4.3522ZM14 9C15.1046 9 16 8.10457 16 7C16 5.89543 15.1046 5 14 5C12.8954 5 12 5.89543 12 7C12 8.10457 12.8954 9 14 9Z"/>
</mask>
<path fill-rule="evenodd" clip-rule="evenodd" d="M9.67206 4.3522C10.2138 4.45936 10.5662 4.98544 10.459 5.52723C10.2807 6.42858 10.2471 7.58671 10.6439 8.51637C11.0002 9.35087 11.7541 10.1357 13.5172 10.3129C14.8537 10.4473 16.1357 9.89502 17.1772 9.05647C18.2424 8.19872 18.8872 7.1785 19.0337 6.63988C19.1787 6.10695 19.7282 5.79243 20.2611 5.93737C20.794 6.08231 21.1086 6.63183 20.9636 7.16475C20.6724 8.23548 19.7072 9.58704 18.4315 10.6142C17.7379 11.1727 16.9046 11.6741 15.9705 11.9892C15.9899 12.101 16 12.216 16 12.3334C15.9998 14.2177 16.5523 15.36 17.1115 16.2282C17.2252 16.3478 17.3415 16.4681 17.4608 16.5916L17.4609 16.5917L17.5451 16.6789C17.8219 16.9655 18.1136 17.2701 18.3913 17.5919C18.9499 18.2392 19.4856 18.9935 19.8146 19.9474C20.486 21.8934 20.1954 24.3453 18.3944 27.9472C18.1474 28.4412 17.5468 28.6414 17.0528 28.3944C16.5588 28.1474 16.3586 27.5468 16.6056 27.0528C18.3046 23.6547 18.3397 21.8047 17.924 20.5997C17.7371 20.0578 17.4387 19.583 17.0531 19.1084C16.9745 19.1838 16.8887 19.2538 16.7958 19.3173C16.6061 19.4471 16.402 19.5397 16.192 19.5969C16.337 20.902 15.9337 22.046 15.0734 22.89C13.8674 24.0733 11.9772 24.4428 10.2186 24.0415C9.68012 23.9186 9.34323 23.3825 9.46609 22.8441C9.58895 22.3057 10.125 21.9688 10.6635 22.0916C11.9227 22.3789 13.0622 22.0614 13.6727 21.4624C14.2029 20.9423 14.5419 19.9978 13.7704 18.4448C13.7605 18.425 13.7514 18.4049 13.743 18.3848C12.9214 17.1051 11.9997 15.2238 12 12.333C12 12.2398 12.0064 12.148 12.0187 12.0582C10.3616 11.5795 9.33835 10.5521 8.80452 9.30158C8.18375 7.84739 8.2814 6.22939 8.49703 5.13917C8.60419 4.59738 9.13027 4.24504 9.67206 4.3522ZM14 9C15.1046 9 16 8.10457 16 7C16 5.89543 15.1046 5 14 5C12.8954 5 12 5.89543 12 7C12 8.10457 12.8954 9 14 9Z"/>
<path d="M10.459 5.52723L8.98753 5.23618L8.98753 5.23618L10.459 5.52723ZM10.6439 8.51637L9.26437 9.10528H9.26437L10.6439 8.51637ZM13.5172 10.3129L13.3672 11.8054L13.5172 10.3129ZM17.1772 9.05647L16.2364 7.88814L16.2364 7.88814L17.1772 9.05647ZM19.0337 6.63988L20.4812 7.03353V7.03353L19.0337 6.63988ZM20.9636 7.16475L22.4111 7.55841V7.55841L20.9636 7.16475ZM18.4315 10.6142L17.4907 9.44592L18.4315 10.6142ZM15.9705 11.9892L15.491 10.568L14.273 10.9789L14.4926 12.2454L15.9705 11.9892ZM16 12.3334L17.5 12.3335V12.3335L16 12.3334ZM17.1115 16.2282L15.8505 17.0405L15.927 17.1593L16.0244 17.2618L17.1115 16.2282ZM17.4608 16.5916L18.5413 15.5511L18.5394 15.5492L17.4608 16.5916ZM17.4609 16.5917L16.3805 17.6322L16.3821 17.6339L17.4609 16.5917ZM17.5451 16.6789L18.6242 15.6369L18.6239 15.6366L17.5451 16.6789ZM18.3913 17.5919L17.2557 18.5719V18.5719L18.3913 17.5919ZM19.8146 19.9474L18.3967 20.4366L19.8146 19.9474ZM18.3944 27.9472L17.0528 27.2764L17.0528 27.2764L18.3944 27.9472ZM17.0528 28.3944L16.382 29.7361L16.382 29.7361L17.0528 28.3944ZM16.6056 27.0528L17.9472 27.7236L17.9472 27.7236L16.6056 27.0528ZM17.924 20.5997L16.506 21.0889L16.506 21.0889L17.924 20.5997ZM17.0531 19.1084L18.2173 18.1625L17.1902 16.8983L16.0147 18.0259L17.0531 19.1084ZM16.7958 19.3173L17.6427 20.5553L17.6427 20.5553L16.7958 19.3173ZM16.192 19.5969L15.798 18.1495L14.5595 18.4867L14.7012 19.7625L16.192 19.5969ZM15.0734 22.89L14.0229 21.8193H14.0229L15.0734 22.89ZM10.2186 24.0415L9.88487 25.5039H9.88488L10.2186 24.0415ZM9.46609 22.8441L8.00368 22.5104L8.00368 22.5104L9.46609 22.8441ZM10.6635 22.0916L10.3298 23.554H10.3298L10.6635 22.0916ZM13.6727 21.4624L12.6222 20.3917H12.6222L13.6727 21.4624ZM13.7704 18.4448L15.1138 17.7775L15.1138 17.7775L13.7704 18.4448ZM13.743 18.3848L15.1269 17.8062L15.0762 17.6849L15.0052 17.5744L13.743 18.3848ZM12 12.333L10.5 12.3329V12.3329L12 12.333ZM12.0187 12.0582L13.5047 12.2626L13.6815 10.9772L12.435 10.6171L12.0187 12.0582ZM8.80452 9.30158L7.42495 9.89048L7.42495 9.89048L8.80452 9.30158ZM8.49703 5.13917L7.02554 4.84812V4.84812L8.49703 5.13917ZM11.9305 5.81828C12.1984 4.46381 11.3176 3.14861 9.96311 2.88071L9.38101 5.8237C9.11012 5.77012 8.93395 5.50708 8.98753 5.23618L11.9305 5.81828ZM12.0235 7.92747C11.7945 7.39106 11.7803 6.57774 11.9305 5.81828L8.98753 5.23618C8.78119 6.27943 8.69965 7.78237 9.26437 9.10528L12.0235 7.92747ZM13.6673 8.82046C12.9844 8.7518 12.6191 8.57878 12.4227 8.439C12.2338 8.30451 12.1139 8.13929 12.0235 7.92747L9.26437 9.10528C9.53018 9.72796 9.96544 10.3724 10.6833 10.8832C11.3937 11.3888 12.2869 11.6968 13.3672 11.8054L13.6673 8.82046ZM16.2364 7.88814C15.3897 8.56992 14.4885 8.90303 13.6673 8.82046L13.3672 11.8054C15.2189 11.9916 16.8818 11.2201 18.1179 10.2248L16.2364 7.88814ZM17.5863 6.24623C17.5875 6.24192 17.5701 6.301 17.5056 6.423C17.4449 6.53781 17.3563 6.68217 17.2372 6.84581C16.9982 7.17423 16.6609 7.54631 16.2364 7.88814L18.1179 10.2248C18.7586 9.70888 19.2765 9.14198 19.6628 8.6112C20.0311 8.10507 20.3415 7.54713 20.4812 7.03353L17.5863 6.24623ZM20.6548 4.48994C19.3225 4.12759 17.9487 4.91391 17.5863 6.24623L20.4812 7.03353C20.4087 7.3 20.1339 7.45726 19.8675 7.38479L20.6548 4.48994ZM22.4111 7.55841C22.7734 6.22609 21.9871 4.85229 20.6548 4.48994L19.8675 7.38479C19.601 7.31232 19.4437 7.03756 19.5162 6.7711L22.4111 7.55841ZM19.3722 11.7826C20.8055 10.6285 22.0112 9.02851 22.4111 7.55841L19.5162 6.7711C19.3336 7.44245 18.6089 8.54554 17.4907 9.44592L19.3722 11.7826ZM16.45 13.4105C17.5812 13.0289 18.5676 12.4304 19.3722 11.7826L17.4907 9.44592C16.9082 9.91501 16.2281 10.3193 15.491 10.568L16.45 13.4105ZM17.5 12.3335C17.5 12.1299 17.4825 11.9291 17.4485 11.7331L14.4926 12.2454C14.4973 12.273 14.5 12.3022 14.5 12.3332L17.5 12.3335ZM18.3726 15.416C17.9301 14.7289 17.4998 13.8647 17.5 12.3335L14.5 12.3332C14.4998 14.5706 15.1746 15.9911 15.8505 17.0405L18.3726 15.416ZM18.5394 15.5492C18.4193 15.4249 18.3074 15.3091 18.1987 15.1947L16.0244 17.2618C16.143 17.3865 16.2636 17.5113 16.3822 17.634L18.5394 15.5492ZM18.5414 15.5513L18.5413 15.5511L16.3803 17.632L16.3805 17.6322L18.5414 15.5513ZM18.6239 15.6366L18.5397 15.5495L16.3821 17.6339L16.4663 17.7211L18.6239 15.6366ZM19.5269 16.6119C19.2189 16.2549 18.9008 15.9234 18.6242 15.6369L16.466 17.7208C16.743 18.0076 17.0083 18.2852 17.2557 18.5719L19.5269 16.6119ZM21.2326 19.4582C20.8176 18.2552 20.1511 17.3352 19.5269 16.6119L17.2557 18.5719C17.7487 19.1432 18.1535 19.7318 18.3967 20.4366L21.2326 19.4582ZM19.7361 28.618C21.6131 24.864 22.0959 21.9603 21.2326 19.4582L18.3967 20.4366C18.8762 21.8264 18.7777 23.8267 17.0528 27.2764L19.7361 28.618ZM16.382 29.7361C17.6169 30.3535 19.1186 29.853 19.7361 28.618L17.0528 27.2764C17.1763 27.0294 17.4766 26.9293 17.7236 27.0528L16.382 29.7361ZM15.2639 26.382C14.6465 27.6169 15.147 29.1186 16.382 29.7361L17.7236 27.0528C17.9706 27.1763 18.0707 27.4766 17.9472 27.7236L15.2639 26.382ZM16.506 21.0889C16.7302 21.7387 16.8861 23.1376 15.2639 26.382L17.9472 27.7236C19.7231 24.1718 19.9493 21.8706 19.342 20.1104L16.506 21.0889ZM15.8889 20.0543C16.2044 20.4426 16.3941 20.7645 16.506 21.0889L19.342 20.1104C19.08 19.3512 18.6729 18.7234 18.2173 18.1625L15.8889 20.0543ZM17.6427 20.5553C17.8038 20.4451 17.9537 20.3231 18.0915 20.1909L16.0147 18.0259C15.9953 18.0445 15.9735 18.0624 15.9489 18.0792L17.6427 20.5553ZM16.586 21.0442C16.9554 20.9437 17.3129 20.7809 17.6427 20.5553L15.9489 18.0792C15.8993 18.1132 15.8486 18.1358 15.798 18.1495L16.586 21.0442ZM16.1239 23.9607C17.3314 22.776 17.8758 21.168 17.6829 19.4312L14.7012 19.7625C14.7982 20.636 14.536 21.3159 14.0229 21.8193L16.1239 23.9607ZM9.88488 25.5039C12.0157 25.9901 14.4698 25.5836 16.1239 23.9607L14.0229 21.8193C13.2649 22.563 11.9387 22.8954 10.5523 22.5791L9.88488 25.5039ZM8.00368 22.5104C7.69652 23.8565 8.53876 25.1968 9.88487 25.5039L10.5523 22.5791C10.8215 22.6405 10.9899 22.9086 10.9285 23.1778L8.00368 22.5104ZM10.9972 20.6292C9.65108 20.3221 8.31084 21.1643 8.00368 22.5104L10.9285 23.1778C10.8671 23.447 10.599 23.6155 10.3298 23.554L10.9972 20.6292ZM12.6222 20.3917C12.4559 20.5548 11.8779 20.8302 10.9972 20.6292L10.3298 23.554C11.9674 23.9277 13.6684 23.568 14.7233 22.5331L12.6222 20.3917ZM12.427 19.1122C12.7226 19.7072 12.7336 20.041 12.7187 20.1766C12.7058 20.2932 12.6665 20.3482 12.6222 20.3917L14.7233 22.5331C15.2091 22.0564 15.6043 21.3791 15.7006 20.5052C15.7949 19.6504 15.5896 18.7354 15.1138 17.7775L12.427 19.1122ZM12.359 18.9633C12.38 19.0135 12.4027 19.0631 12.4271 19.1122L15.1138 17.7775C15.1184 17.7868 15.1228 17.7964 15.1269 17.8062L12.359 18.9633ZM10.5 12.3329C10.4997 15.5863 11.5503 17.746 12.4807 19.1952L15.0052 17.5744C14.2924 16.4641 13.4998 14.8612 13.5 12.3332L10.5 12.3329ZM10.5327 11.8538C10.5111 12.0111 10.5 12.1711 10.5 12.3329L13.5 12.3332C13.5 12.3084 13.5017 12.2849 13.5047 12.2626L10.5327 11.8538ZM7.42495 9.89048C8.13157 11.5458 9.50267 12.8927 11.6025 13.4993L12.435 10.6171C11.2205 10.2663 10.5451 9.55847 10.1841 8.71268L7.42495 9.89048ZM7.02554 4.84812C6.78192 6.07981 6.63621 8.04279 7.42495 9.89048L10.1841 8.71268C9.73129 7.65199 9.78087 6.37896 9.96853 5.43021L7.02554 4.84812ZM9.96311 2.88071C8.60864 2.61281 7.29344 3.49365 7.02554 4.84812L9.96853 5.43021C9.91495 5.70111 9.65191 5.87728 9.38101 5.8237L9.96311 2.88071ZM14.5 7C14.5 7.27614 14.2761 7.5 14 7.5V10.5C15.933 10.5 17.5 8.933 17.5 7H14.5ZM14 6.5C14.2761 6.5 14.5 6.72386 14.5 7H17.5C17.5 5.067 15.933 3.5 14 3.5V6.5ZM13.5 7C13.5 6.72386 13.7239 6.5 14 6.5V3.5C12.067 3.5 10.5 5.067 10.5 7H13.5ZM14 7.5C13.7239 7.5 13.5 7.27614 13.5 7H10.5C10.5 8.933 12.067 10.5 14 10.5V7.5Z" mask="url(#path-1-inside-1_4355_53914)"/>
</svg>
