<svg width="32" height="32" viewBox="0 0 32 32" xmlns="http://www.w3.org/2000/svg">
<path fill-rule="evenodd" clip-rule="evenodd" d="M6.57441 16.7075C6.39492 16.4296 6.25003 16.1889 6.14074 16C6.25003 15.8111 6.39492 15.5704 6.57441 15.2925C7.03543 14.5787 7.71817 13.6294 8.60454 12.6839C10.3955 10.7736 12.8995 9 16 9C19.1005 9 21.6045 10.7736 23.3955 12.6839C24.2818 13.6294 24.9646 14.5787 25.4256 15.2925C25.6051 15.5704 25.75 15.8111 25.8593 16C25.75 16.1889 25.6051 16.4296 25.4256 16.7075C24.9646 17.4213 24.2818 18.3706 23.3955 19.3161C21.6045 21.2264 19.1005 23 16 23C12.8995 23 10.3955 21.2264 8.60454 19.3161C7.71817 18.3706 7.03543 17.4213 6.57441 16.7075ZM27.8941 15.5521C27.8943 15.5525 27.8944 15.5528 27 16C27.8944 16.4472 27.8943 16.4475 27.8941 16.4479L27.8936 16.4488L27.8925 16.4511L27.889 16.458L27.8777 16.4802C27.8681 16.4987 27.8546 16.5247 27.8372 16.5576C27.8025 16.6233 27.752 16.7168 27.686 16.834C27.5542 17.0684 27.3601 17.3985 27.1057 17.7925C26.5979 18.5787 25.8432 19.6294 24.8545 20.6839C22.8955 22.7736 19.8995 25 16 25C12.1005 25 9.10448 22.7736 7.14546 20.6839C6.15683 19.6294 5.40207 18.5787 4.89434 17.7925C4.63985 17.3985 4.44579 17.0684 4.31397 16.834C4.24802 16.7168 4.19754 16.6233 4.16275 16.5576C4.14536 16.5247 4.13188 16.4987 4.12234 16.4802L4.11099 16.458L4.10754 16.4511L4.10637 16.4488L4.10593 16.4479C4.10574 16.4475 4.10557 16.4472 5 16C4.10557 15.5528 4.10574 15.5525 4.10593 15.5521L4.10637 15.5512L4.10754 15.5489L4.11099 15.542L4.12234 15.5198C4.13188 15.5013 4.14536 15.4753 4.16275 15.4424C4.19754 15.3767 4.24802 15.2832 4.31397 15.166C4.44579 14.9316 4.63985 14.6015 4.89434 14.2075C5.40207 13.4213 6.15683 12.3706 7.14546 11.3161C9.10448 9.22644 12.1005 7 16 7C19.8995 7 22.8955 9.22644 24.8545 11.3161C25.8432 12.3706 26.5979 13.4213 27.1057 14.2075C27.3601 14.6015 27.5542 14.9316 27.686 15.166C27.752 15.2832 27.8025 15.3767 27.8372 15.4424C27.8546 15.4753 27.8681 15.5013 27.8777 15.5198L27.889 15.542L27.8925 15.5489L27.8936 15.5512L27.8941 15.5521ZM27 16L27.8944 15.5528C28.0352 15.8343 28.0352 16.1657 27.8944 16.4472L27 16ZM4.10557 15.5528L5 16L4.10557 16.4472C3.96481 16.1657 3.96481 15.8343 4.10557 15.5528ZM14 16C14 14.8954 14.8954 14 16 14C17.1046 14 18 14.8954 18 16C18 17.1046 17.1046 18 16 18C14.8954 18 14 17.1046 14 16ZM16 12C13.7909 12 12 13.7909 12 16C12 18.2091 13.7909 20 16 20C18.2091 20 20 18.2091 20 16C20 13.7909 18.2091 12 16 12Z"/>
</svg>
