<svg width="32" height="32" viewBox="0 0 32 32" xmlns="http://www.w3.org/2000/svg">
<path fill-rule="evenodd" clip-rule="evenodd" d="M5.70711 4.29289C5.31658 3.90237 4.68342 3.90237 4.29289 4.29289C3.90237 4.68342 3.90237 5.31658 4.29289 5.70711L8.56849 9.9827C6.7597 11.5397 5.25036 13.4185 4.11884 15.5272C3.96521 15.8135 3.96026 16.1566 4.10557 16.4472L5 16C4.10557 16.4472 4.10574 16.4476 4.10593 16.4479L4.10637 16.4488L4.10754 16.4512L4.11099 16.458L4.12234 16.4802C4.13188 16.4988 4.14536 16.5247 4.16275 16.5576C4.19754 16.6233 4.24802 16.7168 4.31397 16.834C4.44579 17.0684 4.63985 17.3985 4.89434 17.7926C5.40207 18.5787 6.15683 19.6294 7.14546 20.684C9.10448 22.7736 12.1005 25 16 25L16.0163 24.9999C18.0848 24.9661 20.0962 24.3536 21.8261 23.2403L26.2929 27.7071C26.6834 28.0976 27.3166 28.0976 27.7071 27.7071C28.0976 27.3166 28.0976 26.6834 27.7071 26.2929L22.6471 21.2329L18.8311 17.4169L18.824 17.4098L14.5901 13.1759L14.5832 13.169L10.7671 9.35292L5.70711 4.29289ZM20.3714 21.7856L18.0497 19.464C17.891 19.5635 17.7251 19.652 17.5531 19.7286C17.0625 19.9472 16.5328 20.0648 15.9957 20.0742C15.4586 20.0837 14.9252 19.9849 14.4271 19.7837C13.929 19.5826 13.4766 19.2831 13.0967 18.9033C12.7169 18.5235 12.4175 18.071 12.2163 17.5729C12.0151 17.0749 11.9163 16.5414 11.9258 16.0043C11.9353 15.4672 12.0528 14.9375 12.2714 14.4469C12.3481 14.2749 12.4365 14.109 12.536 13.9503L9.9871 11.4013C8.45031 12.7014 7.14935 14.2582 6.14257 16.0032C6.25165 16.1916 6.39592 16.4311 6.57441 16.7075C7.03543 17.4213 7.71817 18.3706 8.60454 19.3161C10.3939 21.2248 12.8951 22.9969 15.9918 23C17.5373 22.9734 19.0437 22.5524 20.3714 21.7856ZM14.0279 15.4421C13.9637 15.6346 13.9291 15.836 13.9255 16.0396C13.9207 16.3081 13.9701 16.5749 14.0707 16.8239C14.1713 17.0729 14.321 17.2992 14.511 17.4891C14.7009 17.679 14.9271 17.8287 15.1761 17.9293C15.4252 18.0299 15.6919 18.0793 15.9604 18.0745C16.164 18.071 16.3655 18.0363 16.5579 17.9721L14.0279 15.4421ZM24.7526 17.6877L16.0732 9.00035C19.1399 9.02799 21.6186 10.7886 23.3955 12.684C24.2818 13.6294 24.9646 14.5787 25.4256 15.2926C25.6044 15.5694 25.7488 15.8093 25.858 15.9978C25.5223 16.582 25.1532 17.1462 24.7526 17.6877ZM27.8944 15.5528L27 16C27.8944 15.5528 27.8943 15.5525 27.8941 15.5521L27.8936 15.5512L27.8925 15.5489L27.889 15.5421L27.8777 15.5198C27.8681 15.5013 27.8546 15.4753 27.8372 15.4425C27.8025 15.3767 27.752 15.2833 27.686 15.166C27.5542 14.9317 27.3601 14.6015 27.1057 14.2075C26.5979 13.4213 25.8432 12.3706 24.8545 11.3161C22.8957 9.22667 19.9001 7.00046 16.0012 7.00003C15.2171 6.99828 14.4355 7.08765 13.6721 7.26634C13.3188 7.34905 13.038 7.61668 12.9384 7.96563C12.8388 8.31458 12.9361 8.69009 13.1926 8.94681L24.1326 19.8968C24.3306 20.095 24.6027 20.2011 24.8827 20.1891C25.1627 20.1771 25.4247 20.0483 25.6052 19.8339C26.479 18.7953 27.2421 17.6684 27.8819 16.4714C28.0348 16.1854 28.0395 15.8429 27.8944 15.5528ZM16.0012 7.00003H16V8.00003L16.0023 7.00003L16.0012 7.00003Z"/>
</svg>
