<svg width="32" height="32" viewBox="0 0 32 32" xmlns="http://www.w3.org/2000/svg">
<path fill-rule="evenodd" clip-rule="evenodd" d="M20 8C20 6.89543 20.8954 6 22 6C23.1046 6 24 6.89543 24 8V9H26.5C27.3284 9 28 9.67157 28 10.5C28 11.3284 27.3284 12 26.5 12H24V13C24 14.1046 23.1046 15 22 15C20.8954 15 20 14.1046 20 13V12H5.5C4.67157 12 4 11.3284 4 10.5C4 9.67157 4.67157 9 5.5 9H20V8ZM8 19C8 17.8954 8.89543 17 10 17C11.1046 17 12 17.8954 12 19V20H26.5C27.3284 20 28 20.6716 28 21.5C28 22.3284 27.3284 23 26.5 23H12V24C12 25.1046 11.1046 26 10 26C8.89543 26 8 25.1046 8 24V23H5.5C4.67157 23 4 22.3284 4 21.5C4 20.6716 4.67157 20 5.5 20H8V19Z"/>
</svg>
