<svg width="32" height="32" viewBox="0 0 32 32" xmlns="http://www.w3.org/2000/svg">
<path fill-rule="evenodd" clip-rule="evenodd" d="M6.33339 11C6.33339 8.79086 8.12425 7 10.3334 7C12.5425 7 14.3334 8.79086 14.3334 11C14.3334 13.2091 12.5425 15 10.3334 15C8.12425 15 6.33339 13.2091 6.33339 11ZM10.3334 5C7.01968 5 4.33339 7.68629 4.33339 11C4.33339 12.8614 5.18099 14.5248 6.51127 15.6253C3.0403 16.9174 0.481135 20.0822 0.0606786 23.8919C-0.073384 25.1066 0.928551 26 1.99989 26H17.9999C19.0712 26 20.0732 25.1066 19.9391 23.8919C19.5367 20.2459 17.1756 17.1907 13.931 15.8022C15.3897 14.7077 16.3334 12.9641 16.3334 11C16.3334 7.68629 13.6471 5 10.3334 5ZM19.9999 12C19.9999 10.3431 21.343 9 22.9999 9C24.6567 9 25.9999 10.3431 25.9999 12C25.9999 13.6569 24.6567 15 22.9999 15C21.343 15 19.9999 13.6569 19.9999 12ZM22.9999 7C20.2385 7 17.9999 9.23858 17.9999 12C17.9999 13.4803 18.6431 14.8103 19.6654 15.7258C19.2252 15.9279 18.8065 16.1688 18.4137 16.4441C18.8923 16.9149 19.3316 17.4257 19.7262 17.9709C20.6677 17.3569 21.7922 17 22.9997 17C25.9723 17 28.4415 19.1626 28.9169 22H21.6211C21.761 22.5435 21.8639 23.102 21.9269 23.6725C21.9391 23.7831 21.9468 23.8923 21.9502 24H28.9997C30.0592 24 31.0968 23.107 30.9193 21.8618C30.5293 19.1274 28.758 16.8387 26.3343 15.7259C27.3566 14.8104 27.9999 13.4803 27.9999 12C27.9999 9.23858 25.7613 7 22.9999 7ZM17.9381 24C17.4466 20.0541 14.0793 17 9.99989 17C5.92052 17 2.55314 20.0541 2.06168 24H17.9381Z"/>
</svg>
