<svg width="32" height="32" viewBox="0 0 32 32" xmlns="http://www.w3.org/2000/svg">
<path fill-rule="evenodd" clip-rule="evenodd" d="M21.244 11.212C22.3456 9.74055 23 8.35761 23 7.33333C23 5.54995 21.4915 4 19.5 4C17.5085 4 16 5.54995 16 7.33333C16 8.35761 16.6544 9.74055 17.756 11.212C18.337 11.9881 18.9646 12.6873 19.5 13.2395C20.0354 12.6873 20.663 11.9881 21.244 11.212ZM19.8145 15.7209C20.982 14.6581 25 10.7522 25 7.33333C25 4.38781 22.5376 2 19.5 2C16.4624 2 14 4.38781 14 7.33333C14 10.7522 18.018 14.6581 19.1855 15.7209C19.3664 15.8856 19.6336 15.8856 19.8145 15.7209ZM25.4174 10.6598L26.068 11.0707C26.6482 11.4372 27 12.0755 27 12.7617V27.0929C27 28.2742 25.6978 28.9919 24.699 28.3611L19.3334 24.9723L13.2078 28.8411C13.1888 28.8533 13.1693 28.8649 13.1494 28.8759C12.8303 29.0518 12.4407 29.0402 12.1327 28.8456L5.93201 24.9294C5.35182 24.5629 5 23.9246 5 23.2384V8.90727C5 7.72594 6.30218 7.00821 7.30099 7.63903L12.6666 11.0279L13.5172 10.4907C13.7513 11.1131 14.0527 11.7199 14.3954 12.3015L13.6667 12.7618V26.1857L18.3333 23.2384L18.3333 17.0012L18.334 17.0018C18.8991 17.5192 19.6962 17.5995 20.3333 17.2428L20.3333 23.2383L25 26.1857V12.7617L24.5132 12.4543C24.862 11.8789 25.172 11.2775 25.4174 10.6598ZM7 23.2384V9.81443L11.6667 12.7618V26.1858L7 23.2384ZM19.5 9.5C20.6046 9.5 21.5 8.60457 21.5 7.5C21.5 6.39543 20.6046 5.5 19.5 5.5C18.3954 5.5 17.5 6.39543 17.5 7.5C17.5 8.60457 18.3954 9.5 19.5 9.5Z"/>
</svg>
