<svg width="32" height="32" viewBox="0 0 32 32" xmlns="http://www.w3.org/2000/svg">
<path d="M27.1101 4.1616L22.2392 3.03609C21.724 2.8954 21.162 3.17678 20.9278 3.69264L18.6797 8.945C18.4924 9.41396 18.6329 9.92982 19.0076 10.2581L21.8645 12.6029C20.1785 16.167 17.2278 19.1684 13.5747 20.9035L11.2329 18.0428C10.905 17.6677 10.3898 17.527 9.92149 17.7146L4.67591 19.9656C4.16072 20.2001 3.92654 20.7628 4.02021 21.2787L5.14426 26.1559C5.28477 26.6717 5.70629 27 6.26832 27C18.2582 27 28 17.2925 28 5.24021C28 4.72435 27.6253 4.30229 27.1101 4.1616Z"/>
</svg>
