<svg width="32" height="32" viewBox="0 0 32 32" xmlns="http://www.w3.org/2000/svg">
<path fill-rule="evenodd" clip-rule="evenodd" d="M26.2926 18.3249L26.3451 18.3511C27.321 18.8381 28 19.8731 28 21.0391V21.0393V21.0395V21.0398V21.04V21.0402V21.0405V21.0407V21.0409V21.0412V21.0414V21.0416V21.0419V21.0421V21.0424V21.0426V21.0428V21.0431V21.0433V21.0436V21.0438V21.0441V21.0443V21.0446V21.0448V21.0451V21.0453V21.0456V21.0458V21.0461V21.0463V21.0466V21.0468V21.0471V21.0473V21.0476V21.0479V21.0481V21.0484V21.0487V21.0489V21.0492V21.0494V21.0497V21.05V21.0502V21.0505V21.0508V21.051V21.0513V21.0516V21.0519V21.0521V21.0524V21.0527V21.053V21.0532V21.0535V21.0538V21.0541V21.0543V21.0546V21.0549V21.0552V21.0555V21.0557V21.056V21.0563V21.0566V21.0569V21.0572V21.0575V21.0578V21.058V21.0583V21.0586V21.0589V21.0592V21.0595V21.0598V21.0601V21.0604V21.0607V21.061V21.0613V21.0616V21.0619V21.0622V21.0625V21.0628V21.0631V21.0634V21.0637V21.064V21.0643V21.0646V21.0649V21.0652V21.0655V21.0658V21.0661V21.0664V21.0667V21.0671V21.0674V21.0677V21.068V21.0683V21.0686V21.0689V21.0693V21.0696V21.0699V21.0702V21.0705V21.0709V21.0712V21.0715V21.0718V21.0721V21.0725V21.0728V21.0731V21.0734V21.0738V21.0741V21.0744V21.0747V21.0751V21.0754V21.0757V21.0761V21.0764V21.0767V21.0771V21.0774V21.0777V21.0781V21.0784V21.0787V21.0791V21.0794V21.0797V21.0801V21.0804V21.0808V21.0811V21.0814V21.0818V21.0821V21.0825V21.0828V21.0832V21.0835V21.0838V21.0842V21.0845V21.0849V21.0852V21.0856V21.0859V21.0863V21.0866V21.087V21.0873V21.0877V21.088V21.0884V21.0888V21.0891V21.0895V21.0898V21.0902V21.0905V21.0909V21.0912V21.0916V21.092V21.0923V21.0927V21.093V21.0934V21.0938V21.0941V21.0945V21.0949V21.0952V21.0956V21.096V21.0963V21.0967V21.0971V21.0974V21.0978V21.0982V21.0985V21.0989V21.0993V21.0996V21.1V21.1004V21.1008V21.1011V21.1015V21.1019V21.1023V21.1026V21.103V21.1034V21.1038V21.1041V21.1045V21.1049V21.1053V21.1057V21.106V21.1064V21.1068V21.1072V21.1076V21.108V21.1083V21.1087V21.1091V21.1095V21.1099V21.1103V21.1106V21.111V21.1114V21.1118V21.1122V21.1126V21.113V21.1134V21.1138V21.1142V21.1145V21.1149V21.1153V21.1157V21.1161V21.1165V21.1169V21.1173V21.1177V21.1181V21.1185V21.1189V21.1193V21.1197V21.1201V21.1205V21.1209V21.1213V21.1217V21.1221V21.1225V21.1229V21.1233V21.1237V21.1241V21.1245V21.1249V21.1253V21.1257V21.1261V21.1265V21.1269V21.1273V21.1277V21.1281V21.1285V21.1289V21.1294V21.1298V21.1302V21.1306V21.131V21.1314V21.1318V21.1322V21.1326V21.133V21.1335V21.1339V21.1343V21.1347V21.1351V21.1355V21.1359V21.1364V21.1368V21.1372V21.1376V21.138V21.1384V21.1388V21.1393V21.1397V21.1401V21.1405V21.1409V21.1414V21.1418V21.1422V21.1426V21.143V21.1435V21.1439V21.1443V21.1447V21.1451V21.1456V21.146V21.1464V21.1468V21.1473V21.1477V21.1481V21.1485V21.149V21.1494V21.1498V21.1502V21.1507V21.1511V21.1515V21.152V21.1524V21.1528V21.1532V21.1537V21.1541V21.1545V21.155V21.1554V21.1558V21.1563V21.1567V21.1571V21.1576V21.158V21.1584V21.1589V21.1593V21.1597V21.1602V21.1606V21.161V21.1615V21.1619V21.1623V21.1628V21.1632V21.1636V21.1641V21.1645V21.1649V21.1654V21.1658V21.1663V21.1667V21.1671V21.1676V21.168V21.1684V21.1689V21.1693V21.1698V21.1702V21.1706V21.1711V21.1715V21.172V21.1724V21.1729V21.1733V21.1737V21.1742V21.1746V21.1751V21.1755V21.1759V21.1764V21.1768V21.1773V21.1777V21.1782V21.1786V21.1791V21.1795V21.1799V21.1804V21.1808V21.1813V21.1817V21.1822V21.1826V21.1831V21.1835V21.184V21.1844V21.1849V21.1853V21.1858V21.1862V21.1866V21.1871V21.1875V21.188V21.1884V21.1889V21.1893V21.1898V21.1902V21.1907V21.1911V21.1916V21.192V21.1925V21.1929V21.1934V21.1938V21.1943V21.1947V21.1952V21.1956V21.1961V21.1965V21.197V21.1975V21.1979V21.1984V21.1988V21.1993V21.1997V21.2002V21.2006V21.2011V21.2015V21.202V21.2024V21.2029V21.2033V21.2038V21.2042V21.2047V21.2052V21.2056V21.2061V21.2065V21.207V21.2074V21.2079V21.2083V21.2088V21.2092V21.2097V21.2102V21.2106V21.2111V21.2115V21.212V21.2124V21.2129V21.2133V21.2138V21.2143V21.2147V21.2152V21.2156V21.2161V21.2165V21.217V21.2175V21.2179V21.2184V21.2188V21.2193V21.2197V21.2202V21.2206V21.2211V21.2216V21.222V21.2225V21.2229V21.2234V21.2239V21.2243V21.2248V21.2252V21.2257V21.2261V21.2266V21.2271V21.2275V21.228V21.2284V21.2289V21.2293V21.2298V21.2303V21.2307V21.2312V21.2316V21.2321V21.2325V21.233V21.2335V21.2339V21.2344V21.4626L27.9486 21.6849L27.0093 25.7474L27.0004 25.7859L26.9899 25.8241C26.644 27.0901 25.5266 28 24.1605 28C13.0009 28 4 19.0223 4 7.875C4 6.5043 4.91605 5.3906 6.17922 5.04677L6.21723 5.03643L6.25562 5.02759L10.3261 4.09009L10.5476 4.03906H10.5692C10.581 4.03677 10.5932 4.03448 10.6059 4.03225C10.6462 4.02511 10.6969 4.01733 10.7553 4.01123C10.8134 4.00517 10.8864 4 10.9706 4C12.1644 4 13.2251 4.7107 13.6979 5.77233L13.7033 5.78453L13.7086 5.7968L15.5872 10.1718L15.6201 10.2483L15.6465 10.3274C15.6476 10.3306 15.6493 10.3355 15.6515 10.3418C15.6838 10.4338 15.8278 10.844 15.8278 11.3125C15.8278 12.2734 15.363 13.1011 14.7356 13.6079L13.6417 14.5028C14.6341 16.0662 15.9536 17.3825 17.5215 18.3724L18.422 17.2759C18.9 16.6866 19.7138 16.1875 20.6771 16.1875C21.1641 16.1875 21.542 16.3148 21.68 16.3612C21.6873 16.3637 21.6939 16.3659 21.6998 16.3679L21.7787 16.3941L21.855 16.4268L26.2386 18.3018L26.2926 18.3249ZM19.9726 18.5391L18.0157 20.9219C14.9628 19.4766 12.5362 17.0547 11.0881 14.0078L13.4755 12.0547C13.6712 11.8984 13.8278 11.625 13.8278 11.3125C13.8278 11.1953 13.7886 11.0781 13.7495 10.9609L11.8708 6.58594C11.7143 6.23438 11.362 6 10.9706 6C10.9544 6 10.9315 6.0067 10.9046 6.01455C10.8667 6.02566 10.8208 6.03906 10.775 6.03906L6.7045 6.97656C6.27397 7.09375 6 7.44531 6 7.875C6 17.9141 14.1018 26 24.1605 26C24.591 26 24.9432 25.7266 25.0607 25.2969L26 21.2344V21.0391C26 20.6484 25.7652 20.2969 25.4521 20.1406L21.0685 18.2656C20.9511 18.2266 20.8337 18.1875 20.6771 18.1875C20.4031 18.1875 20.1292 18.3438 19.9726 18.5391Z"/>
</svg>
