<svg width="32" height="32" viewBox="0 0 32 32" xmlns="http://www.w3.org/2000/svg">
<path d="M25.4521 20.1406L21.0685 18.2656C20.9511 18.2266 20.8337 18.1875 20.6771 18.1875C20.4031 18.1875 20.1292 18.3438 19.9726 18.5391L18.0157 20.9219C14.9628 19.4766 12.5362 17.0547 11.0881 14.0078L13.4755 12.0547C13.6712 11.8984 13.8278 11.625 13.8278 11.3125C13.8278 11.1953 13.7886 11.0781 13.7495 10.9609L11.8708 6.58594C11.7143 6.23438 11.362 6 10.9706 6C10.9315 6 10.8532 6.03906 10.775 6.03906L6.7045 6.97656C6.27397 7.09375 6 7.44531 6 7.875C6 17.9141 14.1018 26 24.1605 26C24.591 26 24.9432 25.7266 25.0607 25.2969L26 21.2344C26 21.1562 26 21.0781 26 21.0391C26 20.6484 25.7652 20.2969 25.4521 20.1406Z"/>
</svg>
