<svg width="32" height="32" viewBox="0 0 32 32" xmlns="http://www.w3.org/2000/svg">
<path d="M8.67234 23.7298H23.3277C25.1064 23.7298 26 22.8447 26 21.0915V12.1809C26 10.4277 25.1064 9.55106 23.3277 9.55106H21.3447C20.6809 9.55106 20.4681 9.41489 20.0936 8.98936L19.4043 8.2234C18.9787 7.75532 18.5447 7.5 17.6681 7.5H14.2723C13.3957 7.5 12.9617 7.75532 12.5362 8.2234L11.8553 8.98936C11.4809 9.40638 11.2681 9.55106 10.6043 9.55106H8.67234C6.89362 9.55106 6 10.4277 6 12.1809V21.0915C6 22.8447 6.89362 23.7298 8.67234 23.7298ZM16 21.0064C13.4298 21.0064 11.3617 18.9383 11.3617 16.3511C11.3617 13.7638 13.4298 11.6957 16 11.6957C18.5787 11.6957 20.6468 13.7638 20.6468 16.3511C20.6468 18.9383 18.5787 21.0064 16 21.0064ZM16 19.7128C17.8553 19.7128 19.3617 18.2149 19.3617 16.3511C19.3617 14.4872 17.8553 12.9894 16 12.9894C14.1447 12.9894 12.6468 14.4872 12.6468 16.3511C12.6468 18.2149 14.1532 19.7128 16 19.7128Z"/>
</svg>
