<svg width="32" height="32" viewBox="0 0 32 32" xmlns="http://www.w3.org/2000/svg">
<path fill-rule="evenodd" clip-rule="evenodd" d="M3 8C3 5.23858 5.23858 3 8 3H24C26.7614 3 29 5.23858 29 8V24C29 26.7614 26.7614 29 24 29H8C5.23858 29 3 26.7614 3 24V8ZM8 5C6.34315 5 5 6.34315 5 8V24C5 25.6569 6.34315 27 8 27H24C25.6569 27 27 25.6569 27 24V8C27 6.34315 25.6569 5 24 5H8ZM9 16C9 15.4477 9.44772 15 10 15H15V10C15 9.44772 15.4477 9 16 9C16.5523 9 17 9.44772 17 10V15H22C22.5523 15 23 15.4477 23 16C23 16.5523 22.5523 17 22 17H17V22C17 22.5523 16.5523 23 16 23C15.4477 23 15 22.5523 15 22V17H10C9.44772 17 9 16.5523 9 16Z"/>
</svg>
