<svg width="32" height="32" viewBox="0 0 32 32" xmlns="http://www.w3.org/2000/svg">
<path fill-rule="evenodd" clip-rule="evenodd" d="M11.9999 11C11.9999 8.79086 13.7908 7 15.9999 7C18.209 7 19.9999 8.79086 19.9999 11C19.9999 13.2091 18.209 15 15.9999 15C13.7908 15 11.9999 13.2091 11.9999 11ZM15.9999 5C12.6862 5 9.99989 7.68629 9.99989 11C9.99989 12.8614 10.8475 14.5248 12.1778 15.6253C8.70681 16.9174 6.14764 20.0822 5.72718 23.8919C5.59312 25.1066 6.59505 26 7.6664 26H23.6664C24.7377 26 25.7397 25.1066 25.6056 23.8919C25.2032 20.2459 22.8421 17.1907 19.5975 15.8022C21.0562 14.7077 21.9999 12.9641 21.9999 11C21.9999 7.68629 19.3136 5 15.9999 5ZM15.6664 17C19.7458 17 23.1131 20.0541 23.6046 24H7.72818C8.21965 20.0541 11.587 17 15.6664 17Z"/>
</svg>
