<svg width="32" height="32" viewBox="0 0 32 32" xmlns="http://www.w3.org/2000/svg">
<path fill-rule="evenodd" clip-rule="evenodd" d="M19.5455 13.7727C19.5455 16.9609 16.9609 19.5455 13.7727 19.5455C10.5845 19.5455 8 16.9609 8 13.7727C8 10.5845 10.5845 8 13.7727 8C16.9609 8 19.5455 10.5845 19.5455 13.7727ZM18.5164 19.9306C17.2039 20.9431 15.5586 21.5455 13.7727 21.5455C9.47997 21.5455 6 18.0655 6 13.7727C6 9.47997 9.47997 6 13.7727 6C18.0655 6 21.5455 9.47997 21.5455 13.7727C21.5455 15.5586 20.9431 17.2039 19.9306 18.5164L24.707 23.2928C25.0975 23.6833 25.0975 24.3165 24.707 24.707C24.3165 25.0975 23.6833 25.0975 23.2928 24.707L18.5164 19.9306Z"/>
</svg>
