<svg width="32" height="32" viewBox="0 0 32 32" xmlns="http://www.w3.org/2000/svg">
<path fill-rule="evenodd" clip-rule="evenodd" d="M16 32C24.8366 32 32 24.8366 32 16C32 7.16344 24.8366 0 16 0C7.16344 0 0 7.16344 0 16C0 24.8366 7.16344 32 16 32ZM23.9889 12.5601C24.6137 11.9352 24.6137 10.9222 23.9889 10.2973C23.364 9.6725 22.351 9.6725 21.7261 10.2973L13.7146 18.3088L10.2746 14.8688C9.64974 14.2439 8.63668 14.2439 8.01184 14.8688C7.387 15.4936 7.387 16.5067 8.01184 17.1315L12.5833 21.7029C12.8833 22.003 13.2903 22.1716 13.7146 22.1716C14.139 22.1716 14.546 22.003 14.846 21.7029L23.9889 12.5601Z"/>
</svg>
