<svg width="16" height="16" viewBox="0 0 16 16" xmlns="http://www.w3.org/2000/svg">
<path fill-rule="evenodd" clip-rule="evenodd" d="M7 2.19995C6.00589 2.19995 5.2 3.00584 5.2 3.99995V9.99995C5.2 10.9941 6.00589 11.8 7 11.8H13C13.9941 11.8 14.8 10.9941 14.8 9.99995V3.99995C14.8 3.00584 13.9941 2.19995 13 2.19995H7ZM6.8 3.99995C6.8 3.88949 6.88954 3.79995 7 3.79995H13C13.1105 3.79995 13.2 3.88949 13.2 3.99995V9.99995C13.2 10.1104 13.1105 10.2 13 10.2H7C6.88954 10.2 6.8 10.1104 6.8 9.99995V3.99995ZM2.79995 8.9999C2.79995 8.88945 2.88949 8.7999 2.99995 8.7999H3.99995V7.1999H2.99995C2.00584 7.1999 1.19995 8.00579 1.19995 8.9999V12.9999C1.19995 13.994 2.00584 14.7999 2.99995 14.7999H6.99995C7.99406 14.7999 8.79995 13.994 8.79995 12.9999H7.19995C7.19995 13.1104 7.11041 13.1999 6.99995 13.1999H2.99995C2.88949 13.1999 2.79995 13.1104 2.79995 12.9999V8.9999Z"/>
</svg>
