<svg width="16" height="16" viewBox="0 0 16 16" xmlns="http://www.w3.org/2000/svg">
<path fill-rule="evenodd" clip-rule="evenodd" d="M6.20081 0.93119C6.39406 0.802846 6.65222 0.699951 6.93689 0.699951H9.03929C9.51593 0.699951 9.91613 0.981636 10.1379 1.29218C10.265 1.47021 10.3148 1.65263 10.3363 1.73509L10.3534 1.80048C10.3764 1.88853 10.4559 1.94995 10.5469 1.94995H12.6205C12.9838 1.94995 13.2742 2.1283 13.4552 2.31459C13.6376 2.50234 13.8 2.79082 13.8 3.14058V4.85933C13.8 5.39108 13.4502 5.82704 12.9962 5.98565L12.5182 13.5683C12.472 14.6075 11.5953 15.425 10.5809 15.425H5.39532C4.38044 15.425 3.50352 14.6068 3.45793 13.567L3.00192 5.98925C2.52386 5.82925 2.19995 5.37279 2.19995 4.85933V3.14058C2.19995 2.55831 2.6712 1.94995 3.37942 1.94995H5.43317C5.526 1.94995 5.60663 1.88608 5.62787 1.79571L5.66007 1.65872L5.67092 1.61252L5.68717 1.56792C5.7957 1.27 6.00645 1.06027 6.20081 0.93119ZM4.60847 6.04995L5.05548 13.4783L5.05599 13.4868L5.05632 13.4953C5.06317 13.6716 5.2275 13.825 5.39532 13.825H10.5809C10.7487 13.825 10.913 13.6716 10.9199 13.4953L10.9202 13.4856L10.9208 13.476L11.389 6.04995H4.60847ZM12.2 4.44995V3.54995H10.5469C9.76117 3.54995 9.07045 3.04106 8.83296 2.29995H7.14714C6.91028 3.03943 6.22049 3.54995 5.43317 3.54995H3.79995V4.44995H12.2Z"/>
</svg>
