<svg width="16" height="16" viewBox="0 0 16 16" xmlns="http://www.w3.org/2000/svg">
<g clip-path="url(#clip0_7455_88469)">
<path fill-rule="evenodd" clip-rule="evenodd" d="M12.8989 2.23229C13.0141 2.1171 13.1703 2.05239 13.3332 2.05239C13.4961 2.05239 13.6523 2.1171 13.7675 2.23229C13.8827 2.34748 13.9474 2.50371 13.9474 2.66661C13.9474 2.8295 13.8827 2.98573 13.7675 3.10092L7.59087 9.27757L6.4327 9.56711L6.72224 8.40894L12.8989 2.23229ZM13.3332 0.452393C12.746 0.452393 12.1828 0.685675 11.7675 1.10092L5.43418 7.43425C5.33166 7.53678 5.25892 7.66525 5.22376 7.80591L4.55709 10.4726C4.48893 10.7452 4.56881 11.0336 4.76752 11.2323C4.96622 11.431 5.25461 11.5109 5.52723 11.4427L8.1939 10.7761C8.33456 10.7409 8.46303 10.6682 8.56556 10.5656L14.8989 4.23229C15.3141 3.81705 15.5474 3.25385 15.5474 2.66661C15.5474 2.07936 15.3141 1.51617 14.8989 1.10092C14.4836 0.685675 13.9204 0.452393 13.3332 0.452393ZM2.66654 1.8667C2.10074 1.8667 1.55812 2.09146 1.15804 2.49154C0.757964 2.89162 0.533203 3.43424 0.533203 4.00003V13.3334C0.533203 13.8992 0.757964 14.4418 1.15804 14.8419C1.55812 15.2419 2.10074 15.4667 2.66654 15.4667H11.9999C12.5657 15.4667 13.1083 15.2419 13.5084 14.8419C13.9084 14.4418 14.1332 13.8992 14.1332 13.3334V8.6667C14.1332 8.22487 13.775 7.8667 13.3332 7.8667C12.8914 7.8667 12.5332 8.22487 12.5332 8.6667V13.3334C12.5332 13.4748 12.477 13.6105 12.377 13.7105C12.277 13.8105 12.1413 13.8667 11.9999 13.8667H2.66654C2.52509 13.8667 2.38943 13.8105 2.28941 13.7105C2.18939 13.6105 2.1332 13.4748 2.1332 13.3334V4.00003C2.1332 3.85858 2.18939 3.72293 2.28941 3.62291C2.38943 3.52289 2.52509 3.4667 2.66654 3.4667H7.3332C7.77503 3.4667 8.1332 3.10853 8.1332 2.6667C8.1332 2.22487 7.77503 1.8667 7.3332 1.8667H2.66654Z"/>
</g>
<defs>
<clipPath id="clip0_7455_88469">
<rect width="16" height="16"/>
</clipPath>
</defs>
</svg>
