<svg version="1.1" id="Layer_1" xmlns="http://www.w3.org/2000/svg" xmlns:xlink="http://www.w3.org/1999/xlink" viewBox="0 0 32 32" width="32" height="32">
	<path d="M 28.3712 6.7635 C 26.3702 6.7635 24.7423 8.3914 24.7423 10.3924 C 24.7423 11.034 24.9104 11.6367 25.2037 12.1602 L 21.1497 16.2143 C 20.6262 15.921 20.0234 15.7529 19.3818 15.7529 C 18.7402 15.7529 18.1374 15.921 17.614 16.2143 L 15.7859 14.3862 C 16.0792 13.8628 16.2473 13.26 16.2473 12.6184 C 16.2473 10.6174 14.6193 8.9895 12.6184 8.9895 S 8.9895 10.6174 8.9895 12.6184 C 8.9895 13.26 9.1576 13.8627 9.4509 14.3862 L 5.3968 18.4403 C 4.8732 18.1469 4.2705 17.9789 3.6289 17.9789 C 1.6279 17.9789 0 19.6068 0 21.6078 S 1.6279 25.2366 3.6289 25.2366 S 7.2577 23.6087 7.2577 21.6078 C 7.2577 20.9662 7.0897 20.3635 6.7964 19.84 L 10.8505 15.7859 C 11.3739 16.0793 11.9767 16.2473 12.6183 16.2473 C 13.2599 16.2473 13.8626 16.0793 14.3862 15.7859 L 16.2143 17.614 C 15.9209 18.1375 15.7529 18.7403 15.7529 19.3819 C 15.7529 21.3828 17.3808 23.0108 19.3817 23.0108 S 23.0106 21.3828 23.0106 19.3819 C 23.0106 18.7403 22.8426 18.1375 22.5492 17.614 L 26.6033 13.56 C 27.1268 13.8533 27.7295 14.0214 28.3711 14.0214 C 30.3721 14.0214 32 12.3935 32 10.3925 S 30.3721 6.7635 28.3712 6.7635 Z M 3.6289 23.2572 C 2.7193 23.2572 1.9794 22.5172 1.9794 21.6077 S 2.7193 19.9582 3.6289 19.9582 S 5.2784 20.6982 5.2784 21.6077 S 4.5384 23.2572 3.6289 23.2572 Z M 12.6184 14.2679 C 11.7089 14.2679 10.9689 13.5279 10.9689 12.6184 S 11.7089 10.9689 12.6184 10.9689 S 14.2679 11.7089 14.2679 12.6184 S 13.5279 14.2679 12.6184 14.2679 Z M 19.3818 21.0312 C 18.4723 21.0312 17.7323 20.2913 17.7323 19.3818 S 18.4723 17.7323 19.3818 17.7323 S 21.0313 18.4722 21.0313 19.3818 S 20.2913 21.0312 19.3818 21.0312 Z M 28.3712 12.0419 C 27.4617 12.0419 26.7217 11.3019 26.7217 10.3924 S 27.4617 8.7429 28.3712 8.7429 S 30.0207 9.4828 30.0207 10.3924 S 29.2807 12.0419 28.3712 12.0419 Z"/>
</svg>
